<svg xmlns="http://www.w3.org/2000/svg" xmlns:xlink="http://www.w3.org/1999/xlink" viewBox="0 0 595.28 443.43"><defs><style>.cls-1,.cls-13,.cls-14,.cls-15{fill:none;}.cls-2{fill:#e0d2ca;}.cls-3{fill:#a5814c;}.cls-4{fill:#3c2618;}.cls-5{fill:#5f3c13;}.cls-6{fill:#fff;}.cls-10,.cls-15,.cls-7,.cls-8,.cls-9{stroke:#4b4b4b;}.cls-10,.cls-13,.cls-14,.cls-15,.cls-7,.cls-8,.cls-9{stroke-miterlimit:10;}.cls-12,.cls-7{fill:url(#新規パターンスウォッチ_5);}.cls-8{fill:url(#新規パターンスウォッチ_1);}.cls-9{fill:url(#新規パターンスウォッチ_2);}.cls-10{fill:url(#新規パターンスウォッチ_4);}.cls-11{font-size:12px;}.cls-11,.cls-16{fill:#251e1c;font-family:HelveticaNeue-Bold, Helvetica Neue;font-weight:700;}.cls-13,.cls-14{stroke:#fff;stroke-width:2px;}.cls-14{stroke-dasharray:12 12;}.cls-16{font-size:24px;}.cls-17{font-size:10px;font-family:ShinGoPro-Ultra-83pv-RKSJ-H, A-OTF Shin Go Pro;font-weight:400;}.cls-18{letter-spacing:-0.5em;}.cls-19{letter-spacing:-0.25em;}.cls-20{letter-spacing:0.25em;}</style><pattern id="新規パターンスウォッチ_5" data-name="新規パターンスウォッチ 5" width="162.12" height="153.46" patternUnits="userSpaceOnUse" viewBox="0 0 162.12 153.46"><rect class="cls-1" width="162.12" height="153.46"/><rect class="cls-5" x="121.59" y="76.73" width="81.06" height="76.73"/><path class="cls-4" d="M133,90.37c1,2.24,2,4.41,3.09,6.61a35.67,35.67,0,0,0,2,3.82h0a1.06,1.06,0,0,1-.85,1.61c-4.48.26-9.71-4-11.94-9.25s-.71-9.8,2.86-12.24a1.06,1.06,0,0,1,1.61.56c.28.92.58,1.86.86,2.69C131.46,86.25,132.18,88.32,133,90.37Z"/><path class="cls-4" d="M144.15,85.18c2.23,5.26,1.65,12-1.66,15a1.07,1.07,0,0,1-1.74-.49.63.63,0,0,0,0-.13,35.2,35.2,0,0,0-1.34-4.11c-.84-2.29-1.66-4.57-2.61-6.82-.87-2-1.86-4-2.82-6-.39-.74-.84-1.58-1.29-2.4a1.06,1.06,0,0,1,.72-1.54C137.61,77.86,141.92,79.92,144.15,85.18Z"/><path class="cls-4" d="M135,113.91c-2.25,1-4.42,2-6.62,3.09a35.67,35.67,0,0,0-3.82,2h0a1.07,1.07,0,0,1-1.61-.85c-.26-4.48,4-9.71,9.25-11.94s9.81-.71,12.25,2.86a1.06,1.06,0,0,1-.57,1.61c-.92.28-1.86.58-2.69.86C139.13,112.33,137.06,113.05,135,113.91Z"/><path class="cls-4" d="M140.2,125c-5.26,2.23-12,1.65-15-1.66a1.07,1.07,0,0,1,.5-1.74l.12,0a34.6,34.6,0,0,0,4.11-1.34c2.29-.84,4.57-1.66,6.82-2.61,2-.87,4-1.86,6-2.82.75-.39,1.58-.84,2.4-1.29a1.07,1.07,0,0,1,1.55.72C147.52,118.48,145.46,122.79,140.2,125Z"/><path class="cls-4" d="M141.21,145.28l2.69.86a1.06,1.06,0,0,1,.57,1.6c-2.44,3.57-7,5.1-12.25,2.86s-9.51-7.46-9.25-11.94a1.06,1.06,0,0,1,1.61-.84h0a35.74,35.74,0,0,0,3.82,2c2.2,1.05,4.37,2.13,6.62,3.08C137.06,143.8,139.13,144.51,141.21,145.28Z"/><path class="cls-4" d="M146.66,142.6a1.07,1.07,0,0,1-1.55.71c-.82-.45-1.65-.9-2.4-1.29-2-1-4-2-6-2.82-2.25-.95-4.53-1.76-6.82-2.61a34.6,34.6,0,0,0-4.11-1.34l-.12,0a1.07,1.07,0,0,1-.5-1.74c3-3.31,9.77-3.89,15-1.66S147.52,138.37,146.66,142.6Z"/><path class="cls-4" d="M164.12,139.82c-1-2.25-2-4.42-3.08-6.62a34,34,0,0,0-2-3.82h0a1.07,1.07,0,0,1,.85-1.61c4.47-.25,9.71,4,11.94,9.26s.71,9.8-2.86,12.24a1.06,1.06,0,0,1-1.61-.57c-.28-.92-.59-1.86-.86-2.69C165.7,143.93,165,141.86,164.12,139.82Z"/><path class="cls-4" d="M153,145c-2.23-5.26-1.65-12,1.66-15a1.05,1.05,0,0,1,1.73.49l0,.12a35.3,35.3,0,0,0,1.33,4.12c.85,2.28,1.66,4.56,2.62,6.81.86,2,1.86,4,2.82,6,.39.75.84,1.58,1.28,2.4a1.05,1.05,0,0,1-.71,1.55C159.56,152.32,155.25,150.26,153,145Z"/><path class="cls-4" d="M162.15,116.27c2.25-1,4.42-2,6.62-3.08a36.72,36.72,0,0,0,3.82-2h0a1.06,1.06,0,0,1,1.61.84c.25,4.48-4,9.72-9.26,11.94s-9.8.71-12.24-2.86a1.06,1.06,0,0,1,.57-1.6l2.69-.86C158,117.85,160.11,117.14,162.15,116.27Z"/><path class="cls-4" d="M157,105.16c5.26-2.23,12-1.65,15,1.66a1.06,1.06,0,0,1-.49,1.74l-.12,0a35.36,35.36,0,0,0-4.12,1.34c-2.28.85-4.56,1.66-6.81,2.61-2,.87-4,1.86-6,2.82-.74.39-1.58.84-2.39,1.29a1.06,1.06,0,0,1-1.55-.71C149.65,111.71,151.71,107.39,157,105.16Z"/><path class="cls-4" d="M156,84.91c-.83-.28-1.77-.58-2.69-.86a1.06,1.06,0,0,1-.57-1.61c2.44-3.57,7-5.09,12.24-2.86s9.51,7.46,9.26,11.94a1.07,1.07,0,0,1-1.61.85h0a36.65,36.65,0,0,0-3.82-2c-2.2-1.06-4.37-2.13-6.62-3.09C160.11,86.39,158,85.67,156,84.91Z"/><path class="cls-4" d="M150.51,87.59a1.06,1.06,0,0,1,1.55-.72c.81.45,1.65.9,2.39,1.29,2,1,4,2,6,2.82,2.25,1,4.53,1.77,6.81,2.61a35.36,35.36,0,0,0,4.12,1.34l.12,0A1.05,1.05,0,0,1,172,96.7c-3,3.31-9.76,3.89-15,1.66S149.65,91.82,150.51,87.59Z"/><rect class="cls-5" x="40.53" y="115.09" width="81.06" height="76.73"/><path class="cls-4" d="M52,128.73c1,2.25,2,4.42,3.09,6.62a36.65,36.65,0,0,0,2,3.82h0a1.07,1.07,0,0,1-.85,1.61c-4.48.25-9.71-4-11.94-9.26s-.71-9.8,2.86-12.24a1.07,1.07,0,0,1,1.61.57c.28.92.58,1.86.85,2.69C50.4,124.62,51.12,126.69,52,128.73Z"/><path class="cls-4" d="M63.09,123.55c2.23,5.26,1.65,12-1.66,15a1.06,1.06,0,0,1-1.74-.49.5.5,0,0,0,0-.12,35.36,35.36,0,0,0-1.34-4.12c-.84-2.28-1.66-4.56-2.61-6.81-.87-2-1.86-4-2.82-6-.39-.74-.84-1.58-1.29-2.39a1.06,1.06,0,0,1,.71-1.55C56.55,116.23,60.86,118.29,63.09,123.55Z"/><path class="cls-4" d="M54,152.28c-2.25.95-4.42,2-6.62,3.08a34,34,0,0,0-3.82,2h0a1.06,1.06,0,0,1-1.61-.85c-.26-4.47,4-9.71,9.25-11.93s9.81-.71,12.24,2.85a1.06,1.06,0,0,1-.56,1.61l-2.69.86C58.07,150.7,56,151.41,54,152.28Z"/><path class="cls-4" d="M59.14,163.39c-5.26,2.23-12,1.64-15-1.67a1.06,1.06,0,0,1,.5-1.73l.12,0a34.55,34.55,0,0,0,4.11-1.33c2.29-.85,4.57-1.66,6.82-2.62,2-.86,4-1.85,6-2.82.75-.39,1.58-.83,2.4-1.28a1.06,1.06,0,0,1,1.55.71C66.46,156.84,64.4,161.15,59.14,163.39Z"/><path class="cls-4" d="M81.09,154.63c2.25-.95,4.42-2,6.61-3.08a34,34,0,0,0,3.82-2h0a1.06,1.06,0,0,1,1.6.85c.26,4.48-4,9.71-9.25,11.94s-9.8.71-12.24-2.86a1.06,1.06,0,0,1,.57-1.61c.92-.28,1.86-.58,2.69-.86C77,156.21,79.05,155.5,81.09,154.63Z"/><path class="cls-4" d="M75.91,143.53c5.25-2.23,12-1.65,15,1.66a1.05,1.05,0,0,1-.49,1.73l-.13,0a34,34,0,0,0-4.11,1.34c-2.29.84-4.57,1.66-6.81,2.61-2,.86-4,1.86-6,2.82L71,155a1.06,1.06,0,0,1-1.54-.72C68.59,150.07,70.64,145.76,75.91,143.53Z"/><path class="cls-4" d="M74.9,123.27l-2.69-.86a1.06,1.06,0,0,1-.57-1.6c2.44-3.57,7-5.1,12.24-2.86s9.51,7.46,9.25,11.93a1.06,1.06,0,0,1-1.6.85h0a34,34,0,0,0-3.82-2c-2.19-1-4.36-2.13-6.61-3.08C79.05,124.75,77,124,74.9,123.27Z"/><path class="cls-4" d="M69.45,126a1.05,1.05,0,0,1,1.54-.71l2.4,1.29c2,1,4,1.95,6,2.81,2.24,1,4.52,1.77,6.81,2.62a35.77,35.77,0,0,0,4.11,1.33l.13,0a1.06,1.06,0,0,1,.49,1.74c-3,3.3-9.77,3.89-15,1.66S68.59,130.18,69.45,126Z"/><path class="cls-4" d="M106.7,128.73c1,2.25,2,4.42,3.08,6.62a36.72,36.72,0,0,0,2,3.82h0a1.06,1.06,0,0,1-.84,1.61c-4.48.25-9.71-4-11.94-9.26s-.71-9.8,2.86-12.24a1.06,1.06,0,0,1,1.6.57c.29.92.59,1.86.86,2.69C105.12,124.62,105.84,126.69,106.7,128.73Z"/><path class="cls-4" d="M117.81,123.55c2.23,5.26,1.65,12-1.66,15a1.06,1.06,0,0,1-1.74-.49c0-.06,0-.1,0-.12a35.36,35.36,0,0,0-1.34-4.12c-.85-2.28-1.66-4.56-2.61-6.81-.87-2-1.86-4-2.82-6-.39-.74-.84-1.58-1.29-2.39a1.06,1.06,0,0,1,.71-1.55C111.26,116.23,115.58,118.29,117.81,123.55Z"/><path class="cls-4" d="M108.67,152.28c-2.24.95-4.41,2-6.61,3.08a34,34,0,0,0-3.82,2h0a1.06,1.06,0,0,1-1.6-.85c-.26-4.47,4-9.71,9.25-11.93s9.8-.71,12.24,2.85a1.06,1.06,0,0,1-.56,1.61l-2.69.86C112.79,150.7,110.72,151.41,108.67,152.28Z"/><path class="cls-4" d="M113.86,163.39c-5.26,2.23-12,1.64-15-1.67a1.05,1.05,0,0,1,.49-1.73l.13,0a35.15,35.15,0,0,0,4.11-1.33c2.29-.85,4.57-1.66,6.82-2.62,2-.86,4-1.85,6-2.82.74-.39,1.58-.83,2.4-1.28a1.05,1.05,0,0,1,1.54.71C121.18,156.84,119.12,161.15,113.86,163.39Z"/><rect class="cls-5" x="-40.53" y="76.73" width="81.06" height="76.73"/><path class="cls-4" d="M2,139.82c-.95-2.25-2-4.42-3.08-6.62a34,34,0,0,0-2-3.82h0a1.07,1.07,0,0,1,.85-1.61c4.47-.25,9.71,4,11.93,9.26s.71,9.8-2.86,12.24a1.06,1.06,0,0,1-1.6-.57c-.29-.92-.59-1.86-.86-2.69C3.58,143.93,2.87,141.86,2,139.82Z"/><path class="cls-4" d="M-9.11,145c-2.23-5.26-1.64-12,1.66-15a1.06,1.06,0,0,1,1.74.49l0,.12a35.3,35.3,0,0,0,1.33,4.12c.85,2.28,1.66,4.56,2.62,6.81.86,2,1.85,4,2.81,6,.4.75.84,1.58,1.29,2.4a1.06,1.06,0,0,1-.71,1.55C-2.56,152.32-6.87,150.26-9.11,145Z"/><path class="cls-4" d="M0,116.27c2.25-1,4.42-2,6.61-3.08a35.74,35.74,0,0,0,3.82-2h0a1.05,1.05,0,0,1,1.6.84c.26,4.48-4,9.72-9.25,11.94s-9.8.71-12.24-2.86a1.06,1.06,0,0,1,.56-1.6l2.7-.86C-4.09,117.85-2,117.14,0,116.27Z"/><path class="cls-4" d="M-5.16,105.16c5.26-2.23,12-1.65,15,1.66a1.06,1.06,0,0,1-.49,1.74l-.13,0a35.83,35.83,0,0,0-4.11,1.34c-2.29.85-4.57,1.66-6.81,2.61-2.05.87-4,1.86-6,2.82l-2.4,1.29a1.05,1.05,0,0,1-1.54-.71C-12.48,111.71-10.42,107.39-5.16,105.16Z"/><path class="cls-4" d="M-6.16,84.91c-.83-.28-1.77-.58-2.7-.86a1.07,1.07,0,0,1-.56-1.61c2.44-3.57,7-5.09,12.24-2.86S12.33,87,12.07,91.52a1.06,1.06,0,0,1-1.6.85h0a35.67,35.67,0,0,0-3.82-2C4.45,89.28,2.28,88.21,0,87.25-2,86.39-4.09,85.67-6.16,84.91Z"/><path class="cls-4" d="M-11.61,87.59a1.06,1.06,0,0,1,1.54-.72l2.4,1.29c2,1,4,2,6,2.82,2.24,1,4.52,1.77,6.81,2.61a35.83,35.83,0,0,0,4.11,1.34l.13,0a1.05,1.05,0,0,1,.49,1.73c-3,3.31-9.77,3.89-15,1.66S-12.48,91.82-11.61,87.59Z"/><path class="cls-4" d="M25.64,90.37c.95,2.24,2,4.41,3.08,6.61a35.74,35.74,0,0,0,2,3.82h0a1.06,1.06,0,0,1-.84,1.61c-4.48.26-9.72-4-11.94-9.25s-.71-9.8,2.86-12.24a1.05,1.05,0,0,1,1.6.56c.29.92.59,1.86.86,2.69C24.06,86.25,24.77,88.32,25.64,90.37Z"/><path class="cls-4" d="M36.75,85.18c2.23,5.26,1.65,12-1.66,15a1.07,1.07,0,0,1-1.74-.49.53.53,0,0,1,0-.13A35.2,35.2,0,0,0,32,95.48c-.85-2.29-1.66-4.57-2.61-6.82-.87-2-1.86-4-2.82-6-.39-.74-.84-1.58-1.29-2.4A1.05,1.05,0,0,1,26,78.73C30.2,77.86,34.52,79.92,36.75,85.18Z"/><path class="cls-4" d="M27.61,113.91c-2.24,1-4.41,2-6.61,3.09a35.67,35.67,0,0,0-3.82,2h0a1.06,1.06,0,0,1-1.6-.85c-.26-4.48,4-9.71,9.25-11.94s9.8-.71,12.24,2.86a1.06,1.06,0,0,1-.56,1.61c-.93.28-1.87.58-2.69.86C31.73,112.33,29.66,113.05,27.61,113.91Z"/><path class="cls-4" d="M32.8,125c-5.26,2.23-12,1.65-15-1.66a1.06,1.06,0,0,1,.49-1.74l.13,0a35.83,35.83,0,0,0,4.11-1.34c2.29-.84,4.57-1.66,6.81-2.61,2.05-.87,4-1.86,6-2.82l2.4-1.29a1.06,1.06,0,0,1,1.54.72C40.12,118.48,38.06,122.79,32.8,125Z"/><path class="cls-4" d="M33.81,145.28l2.69.86a1.05,1.05,0,0,1,.56,1.6c-2.44,3.57-7,5.1-12.24,2.86s-9.51-7.46-9.25-11.94a1.05,1.05,0,0,1,1.6-.84h0a35.74,35.74,0,0,0,3.82,2c2.2,1.05,4.37,2.13,6.61,3.08C29.66,143.8,31.73,144.51,33.81,145.28Z"/><path class="cls-4" d="M39.25,142.6a1.06,1.06,0,0,1-1.54.71L35.31,142c-2-1-4-2-6-2.82-2.24-.95-4.52-1.76-6.81-2.61a35.83,35.83,0,0,0-4.11-1.34l-.13,0a1.06,1.06,0,0,1-.49-1.74c3-3.31,9.77-3.89,15-1.66S40.12,138.37,39.25,142.6Z"/><rect class="cls-5" x="121.59" width="81.06" height="76.73"/><path class="cls-4" d="M133,13.64c1,2.24,2,4.41,3.09,6.61a35.67,35.67,0,0,0,2,3.82h0a1.06,1.06,0,0,1-.85,1.6c-4.48.26-9.71-4-11.94-9.25s-.71-9.8,2.86-12.24a1.06,1.06,0,0,1,1.61.56c.28.93.58,1.87.86,2.69C131.46,9.52,132.18,11.59,133,13.64Z"/><path class="cls-4" d="M144.15,8.45c2.23,5.26,1.65,12-1.66,15a1.06,1.06,0,0,1-1.74-.49.86.86,0,0,0,0-.13,35.83,35.83,0,0,0-1.34-4.11c-.84-2.29-1.66-4.57-2.61-6.81-.87-2-1.86-4-2.82-6-.39-.74-.84-1.58-1.29-2.4A1.06,1.06,0,0,1,133.38,2C137.61,1.13,141.92,3.19,144.15,8.45Z"/><path class="cls-4" d="M135,37.19c-2.25,1-4.42,2-6.62,3.08a34,34,0,0,0-3.82,2h0a1.07,1.07,0,0,1-1.61-.85c-.26-4.48,4-9.71,9.25-11.94s9.81-.71,12.25,2.86A1.06,1.06,0,0,1,143.9,34c-.92.28-1.86.58-2.69.86C139.13,35.6,137.06,36.32,135,37.19Z"/><path class="cls-4" d="M140.2,48.29c-5.26,2.23-12,1.65-15-1.66a1.06,1.06,0,0,1,.5-1.73l.12,0a34.6,34.6,0,0,0,4.11-1.34c2.29-.84,4.57-1.66,6.82-2.61,2-.87,4-1.86,6-2.82.75-.39,1.58-.84,2.4-1.29a1.07,1.07,0,0,1,1.55.72C147.52,41.75,145.46,46.06,140.2,48.29Z"/><path class="cls-4" d="M141.21,68.55l2.69.86a1.06,1.06,0,0,1,.57,1.6c-2.44,3.57-7,5.1-12.25,2.86s-9.51-7.46-9.25-11.93a1.06,1.06,0,0,1,1.61-.85h0a35.74,35.74,0,0,0,3.82,2c2.2,1.05,4.37,2.13,6.62,3.08C137.06,67.07,139.13,67.78,141.21,68.55Z"/><path class="cls-4" d="M146.66,65.87a1.06,1.06,0,0,1-1.55.71l-2.4-1.29c-2-1-4-2-6-2.81-2.25-1-4.53-1.77-6.82-2.62a36.52,36.52,0,0,0-4.11-1.34l-.12,0a1.06,1.06,0,0,1-.5-1.74c3-3.3,9.77-3.89,15-1.66S147.52,61.64,146.66,65.87Z"/><path class="cls-4" d="M164.12,63.09c-1-2.25-2-4.42-3.08-6.62a34.91,34.91,0,0,0-2-3.82h0a1.07,1.07,0,0,1,.85-1.61c4.47-.25,9.71,4,11.94,9.26s.71,9.8-2.86,12.24a1.06,1.06,0,0,1-1.61-.57c-.28-.92-.59-1.86-.86-2.69C165.7,67.2,165,65.13,164.12,63.09Z"/><path class="cls-4" d="M153,68.27c-2.23-5.26-1.65-12,1.66-15a1.05,1.05,0,0,1,1.73.49l0,.12A35.3,35.3,0,0,0,157.78,58c.85,2.28,1.66,4.56,2.62,6.81.86,2,1.86,4,2.82,6,.39.74.84,1.58,1.28,2.39a1.05,1.05,0,0,1-.71,1.55C159.56,75.59,155.25,73.53,153,68.27Z"/><path class="cls-4" d="M162.15,39.54c2.25-.95,4.42-2,6.62-3.08a34.91,34.91,0,0,0,3.82-2h0a1.07,1.07,0,0,1,1.61.85c.25,4.47-4,9.71-9.26,11.93s-9.8.71-12.24-2.86a1.06,1.06,0,0,1,.57-1.6l2.69-.86C158,41.12,160.11,40.41,162.15,39.54Z"/><path class="cls-4" d="M157,28.43c5.26-2.23,12-1.64,15,1.66a1.06,1.06,0,0,1-.49,1.74l-.12,0a35.3,35.3,0,0,0-4.12,1.33c-2.28.85-4.56,1.66-6.81,2.62-2,.86-4,1.85-6,2.81-.74.4-1.58.84-2.39,1.29a1.06,1.06,0,0,1-1.55-.71C149.65,35,151.71,30.67,157,28.43Z"/><path class="cls-4" d="M156,8.18c-.83-.28-1.77-.58-2.69-.86a1.06,1.06,0,0,1-.57-1.61c2.44-3.57,7-5.09,12.24-2.86s9.51,7.46,9.26,11.94a1.07,1.07,0,0,1-1.61.85h0a34.91,34.91,0,0,0-3.82-2c-2.2-1.06-4.37-2.13-6.62-3.08C160.11,9.66,158,9,156,8.18Z"/><path class="cls-4" d="M150.51,10.86a1.06,1.06,0,0,1,1.55-.72c.81.45,1.65.9,2.39,1.29,2,1,4,2,6,2.82,2.25.95,4.53,1.77,6.81,2.61a33.56,33.56,0,0,0,4.12,1.34l.12,0A1.05,1.05,0,0,1,172,20c-3,3.31-9.76,3.89-15,1.66S149.65,15.09,150.51,10.86Z"/><rect class="cls-5" x="40.53" y="38.36" width="81.06" height="76.73"/><path class="cls-4" d="M52,52c1,2.25,2,4.42,3.09,6.62a35.67,35.67,0,0,0,2,3.82h0a1.07,1.07,0,0,1-.85,1.61c-4.48.25-9.71-4-11.94-9.26S43.6,45,47.17,42.55a1.07,1.07,0,0,1,1.61.57c.28.92.58,1.86.85,2.69C50.4,47.89,51.12,50,52,52Z"/><path class="cls-4" d="M63.09,46.82c2.23,5.26,1.65,12-1.66,15a1.06,1.06,0,0,1-1.74-.49.5.5,0,0,0,0-.12,35.36,35.36,0,0,0-1.34-4.12c-.84-2.28-1.66-4.56-2.61-6.81-.87-2-1.86-4-2.82-6-.39-.75-.84-1.58-1.29-2.4a1.06,1.06,0,0,1,.71-1.55C56.55,39.5,60.86,41.56,63.09,46.82Z"/><path class="cls-4" d="M54,75.55c-2.25,1-4.42,2-6.62,3.08a35.74,35.74,0,0,0-3.82,2h0a1.06,1.06,0,0,1-1.61-.84c-.26-4.48,4-9.72,9.25-11.94S61,67.17,63.4,70.74a1,1,0,0,1-.56,1.6l-2.69.86C58.07,74,56,74.68,54,75.55Z"/><path class="cls-4" d="M59.14,86.66c-5.26,2.23-12,1.64-15-1.66a1.07,1.07,0,0,1,.5-1.74l.12,0a34.6,34.6,0,0,0,4.11-1.34c2.29-.85,4.57-1.66,6.82-2.61,2-.87,4-1.86,6-2.82l2.4-1.29a1.06,1.06,0,0,1,1.55.71C66.46,80.11,64.4,84.43,59.14,86.66Z"/><path class="cls-4" d="M60.15,106.91c.83.28,1.77.58,2.69.86a1.06,1.06,0,0,1,.56,1.61c-2.43,3.57-7,5.09-12.24,2.86s-9.51-7.46-9.25-11.94a1.06,1.06,0,0,1,1.61-.85h0a35.67,35.67,0,0,0,3.82,2c2.2,1.06,4.37,2.13,6.62,3.08C56,105.43,58.07,106.15,60.15,106.91Z"/><path class="cls-4" d="M65.6,104.23a1.07,1.07,0,0,1-1.55.72c-.82-.45-1.65-.9-2.4-1.29-2-1-3.95-2-6-2.82-2.25-1-4.53-1.77-6.82-2.61a34.6,34.6,0,0,0-4.11-1.34l-.12,0a1.06,1.06,0,0,1-.5-1.73c3-3.31,9.77-3.89,15-1.66S66.46,100,65.6,104.23Z"/><path class="cls-4" d="M83.06,101.45c-1-2.24-2-4.41-3.08-6.61A34,34,0,0,0,78,91h0a1.06,1.06,0,0,1,.85-1.6c4.47-.26,9.71,4,11.94,9.25s.71,9.8-2.86,12.24a1.06,1.06,0,0,1-1.61-.56c-.29-.92-.59-1.86-.86-2.69C84.64,105.57,83.93,103.5,83.06,101.45Z"/><path class="cls-4" d="M72,106.64c-2.23-5.26-1.64-12,1.67-15a1.05,1.05,0,0,1,1.73.49c0,.06,0,.11,0,.13a35.15,35.15,0,0,0,1.33,4.11c.85,2.29,1.66,4.57,2.62,6.82.86,2,1.86,4,2.82,6,.39.74.83,1.58,1.28,2.4a1.05,1.05,0,0,1-.71,1.54C78.5,114,74.19,111.9,72,106.64Z"/><path class="cls-4" d="M81.09,77.91c2.25-1,4.42-2,6.61-3.09a35.67,35.67,0,0,0,3.82-2h0a1.06,1.06,0,0,1,1.6.85c.26,4.48-4,9.71-9.25,11.94s-9.8.71-12.24-2.86a1.06,1.06,0,0,1,.57-1.61c.92-.28,1.86-.58,2.69-.86C77,79.49,79.05,78.77,81.09,77.91Z"/><path class="cls-4" d="M75.91,66.8c5.25-2.23,12-1.65,15,1.66a1.05,1.05,0,0,1-.49,1.73l-.13,0a35.83,35.83,0,0,0-4.11,1.34c-2.29.84-4.57,1.66-6.81,2.61-2,.87-4,1.86-6,2.82L71,78.29a1.06,1.06,0,0,1-1.54-.72C68.59,73.34,70.64,69,75.91,66.8Z"/><path class="cls-4" d="M74.9,46.54l-2.69-.86a1.06,1.06,0,0,1-.57-1.6c2.44-3.57,7-5.1,12.24-2.86s9.51,7.46,9.25,11.94a1.05,1.05,0,0,1-1.6.84h0a35.74,35.74,0,0,0-3.82-2c-2.19-1-4.36-2.13-6.61-3.08C79.05,48,77,47.31,74.9,46.54Z"/><path class="cls-4" d="M69.45,49.22A1.05,1.05,0,0,1,71,48.51l2.4,1.29c2,1,4,2,6,2.82,2.24,1,4.52,1.76,6.81,2.61a35.83,35.83,0,0,0,4.11,1.34l.13,0a1.06,1.06,0,0,1,.49,1.74c-3,3.31-9.77,3.89-15,1.66S68.59,53.45,69.45,49.22Z"/><path class="cls-4" d="M106.7,52c1,2.25,2,4.42,3.08,6.62a35.74,35.74,0,0,0,2,3.82h0a1.06,1.06,0,0,1-.84,1.61c-4.48.25-9.71-4-11.94-9.26s-.71-9.8,2.86-12.24a1.06,1.06,0,0,1,1.6.57c.29.92.59,1.86.86,2.69C105.12,47.89,105.84,50,106.7,52Z"/><path class="cls-4" d="M117.81,46.82c2.23,5.26,1.65,12-1.66,15a1.06,1.06,0,0,1-1.74-.49c0-.06,0-.1,0-.12A35.36,35.36,0,0,0,113,57.11c-.85-2.28-1.66-4.56-2.61-6.81-.87-2-1.86-4-2.82-6-.39-.75-.84-1.58-1.29-2.4a1.06,1.06,0,0,1,.71-1.55C111.26,39.5,115.58,41.56,117.81,46.82Z"/><path class="cls-4" d="M108.67,75.55c-2.24,1-4.41,2-6.61,3.08a35.74,35.74,0,0,0-3.82,2h0a1.05,1.05,0,0,1-1.6-.84c-.26-4.48,4-9.72,9.25-11.94s9.8-.71,12.24,2.86a1.05,1.05,0,0,1-.56,1.6l-2.69.86C112.79,74,110.72,74.68,108.67,75.55Z"/><path class="cls-4" d="M113.86,86.66c-5.26,2.23-12,1.64-15-1.66a1.06,1.06,0,0,1,.49-1.74l.13,0a35.2,35.2,0,0,0,4.11-1.34c2.29-.85,4.57-1.66,6.82-2.61,2-.87,4-1.86,6-2.82l2.4-1.29a1.05,1.05,0,0,1,1.54.71C121.18,80.11,119.12,84.43,113.86,86.66Z"/><path class="cls-4" d="M114.87,106.91c.83.28,1.77.58,2.69.86a1.06,1.06,0,0,1,.56,1.61c-2.44,3.57-7,5.09-12.24,2.86s-9.51-7.46-9.25-11.94a1.06,1.06,0,0,1,1.6-.85h0a35.67,35.67,0,0,0,3.82,2c2.2,1.06,4.37,2.13,6.61,3.08C110.72,105.43,112.79,106.15,114.87,106.91Z"/><path class="cls-4" d="M120.31,104.23a1.06,1.06,0,0,1-1.54.72l-2.4-1.29c-2-1-4-2-6-2.82-2.25-1-4.53-1.77-6.82-2.61a35.2,35.2,0,0,0-4.11-1.34l-.13,0a1.05,1.05,0,0,1-.49-1.73c3-3.31,9.77-3.89,15-1.66S121.18,100,120.31,104.23Z"/><rect class="cls-5" x="-40.53" width="81.06" height="76.73"/><path class="cls-4" d="M2,63.09c-.95-2.25-2-4.42-3.08-6.62a34.91,34.91,0,0,0-2-3.82h0A1.07,1.07,0,0,1-2.26,51c4.47-.25,9.71,4,11.93,9.26s.71,9.8-2.86,12.24A1.06,1.06,0,0,1,5.21,72c-.29-.92-.59-1.86-.86-2.69C3.58,67.2,2.87,65.13,2,63.09Z"/><path class="cls-4" d="M-9.11,68.27c-2.23-5.26-1.64-12,1.66-15a1.06,1.06,0,0,1,1.74.49c0,.06,0,.1,0,.12A35.3,35.3,0,0,0-4.34,58c.85,2.28,1.66,4.56,2.62,6.81.86,2,1.85,4,2.81,6,.4.74.84,1.58,1.29,2.39a1.06,1.06,0,0,1-.71,1.55C-2.56,75.59-6.87,73.53-9.11,68.27Z"/><path class="cls-4" d="M0,39.54c2.25-.95,4.42-2,6.61-3.08a34,34,0,0,0,3.82-2h0a1.06,1.06,0,0,1,1.6.85c.26,4.47-4,9.71-9.25,11.93s-9.8.71-12.24-2.86a1.06,1.06,0,0,1,.56-1.6l2.7-.86C-4.09,41.12-2,40.41,0,39.54Z"/><path class="cls-4" d="M-5.16,28.43c5.26-2.23,12-1.64,15,1.66a1.06,1.06,0,0,1-.49,1.74l-.13,0A35.77,35.77,0,0,0,5.14,33.2c-2.29.85-4.57,1.66-6.81,2.62-2.05.86-4,1.85-6,2.81l-2.4,1.29a1.05,1.05,0,0,1-1.54-.71C-12.48,35-10.42,30.67-5.16,28.43Z"/><path class="cls-4" d="M-6.16,8.18C-7,7.9-7.93,7.6-8.86,7.32a1.07,1.07,0,0,1-.56-1.61C-7,2.14-2.44.62,2.82,2.85s9.51,7.46,9.25,11.94a1.06,1.06,0,0,1-1.6.85h0a34,34,0,0,0-3.82-2C4.45,12.55,2.28,11.48,0,10.53-2,9.66-4.09,9-6.16,8.18Z"/><path class="cls-4" d="M-11.61,10.86a1.06,1.06,0,0,1,1.54-.72l2.4,1.29c2,1,4,2,6,2.82C.57,15.2,2.85,16,5.14,16.86A34,34,0,0,0,9.25,18.2l.13,0A1.05,1.05,0,0,1,9.87,20c-3,3.31-9.77,3.89-15,1.66S-12.48,15.09-11.61,10.86Z"/><path class="cls-4" d="M25.64,13.64c.95,2.24,2,4.41,3.08,6.61a35.74,35.74,0,0,0,2,3.82h0a1.05,1.05,0,0,1-.84,1.6c-4.48.26-9.72-4-11.94-9.25s-.71-9.8,2.86-12.24a1.05,1.05,0,0,1,1.6.56c.29.93.59,1.87.86,2.69C24.06,9.52,24.77,11.59,25.64,13.64Z"/><path class="cls-4" d="M36.75,8.45c2.23,5.26,1.65,12-1.66,15A1.06,1.06,0,0,1,33.35,23a.45.45,0,0,1,0-.13A35.83,35.83,0,0,0,32,18.75c-.85-2.29-1.66-4.57-2.61-6.81-.87-2-1.86-4-2.82-6-.39-.74-.84-1.58-1.29-2.4A1.05,1.05,0,0,1,26,2C30.2,1.13,34.52,3.19,36.75,8.45Z"/><path class="cls-4" d="M27.61,37.19c-2.24,1-4.41,2-6.61,3.08a34,34,0,0,0-3.82,2h0a1.06,1.06,0,0,1-1.6-.85c-.26-4.48,4-9.71,9.25-11.94s9.8-.71,12.24,2.86A1.06,1.06,0,0,1,36.5,34c-.93.28-1.87.58-2.69.86C31.73,35.6,29.66,36.32,27.61,37.19Z"/><path class="cls-4" d="M32.8,48.29c-5.26,2.23-12,1.65-15-1.66a1.05,1.05,0,0,1,.49-1.73l.13,0a35.83,35.83,0,0,0,4.11-1.34c2.29-.84,4.57-1.66,6.81-2.61,2.05-.87,4-1.86,6-2.82l2.4-1.29a1.06,1.06,0,0,1,1.54.72C40.12,41.75,38.06,46.06,32.8,48.29Z"/><path class="cls-4" d="M33.81,68.55l2.69.86a1.05,1.05,0,0,1,.56,1.6c-2.44,3.57-7,5.1-12.24,2.86s-9.51-7.46-9.25-11.93a1.05,1.05,0,0,1,1.6-.85h0a35.74,35.74,0,0,0,3.82,2c2.2,1.05,4.37,2.13,6.61,3.08C29.66,67.07,31.73,67.78,33.81,68.55Z"/><path class="cls-4" d="M39.25,65.87a1.05,1.05,0,0,1-1.54.71l-2.4-1.29c-2-1-4-2-6-2.81-2.24-1-4.52-1.77-6.81-2.62a37.89,37.89,0,0,0-4.11-1.34l-.13,0a1.06,1.06,0,0,1-.49-1.74c3-3.3,9.77-3.89,15-1.66S40.12,61.64,39.25,65.87Z"/><rect class="cls-5" x="40.53" y="-38.36" width="81.06" height="76.73"/><path class="cls-4" d="M54-1.18c-2.25,1-4.42,2-6.62,3.08a35.74,35.74,0,0,0-3.82,2h0a1.06,1.06,0,0,1-1.61-.84c-.26-4.48,4-9.71,9.25-11.94S61-9.56,63.4-6a1,1,0,0,1-.56,1.6l-2.69.86C58.07-2.76,56-2,54-1.18Z"/><path class="cls-4" d="M59.14,9.93c-5.26,2.23-12,1.65-15-1.66a1.07,1.07,0,0,1,.5-1.74l.12,0a34.6,34.6,0,0,0,4.11-1.34c2.29-.85,4.57-1.66,6.82-2.61,2-.87,4-1.86,6-2.82.75-.39,1.58-.84,2.4-1.29a1.07,1.07,0,0,1,1.55.71C66.46,3.38,64.4,7.7,59.14,9.93Z"/><path class="cls-4" d="M60.15,30.19c.83.27,1.77.57,2.69.85a1.06,1.06,0,0,1,.56,1.61c-2.43,3.57-7,5.09-12.24,2.86s-9.51-7.46-9.25-11.94a1.06,1.06,0,0,1,1.61-.85h0a35.67,35.67,0,0,0,3.82,2c2.2,1.06,4.37,2.13,6.62,3.09C56,28.7,58.07,29.42,60.15,30.19Z"/><path class="cls-4" d="M65.6,27.51a1.07,1.07,0,0,1-1.55.71c-.82-.45-1.65-.9-2.4-1.29-2-1-3.95-1.95-6-2.82-2.25-.95-4.53-1.77-6.82-2.61a34.6,34.6,0,0,0-4.11-1.34l-.12,0a1.07,1.07,0,0,1-.5-1.74c3-3.31,9.77-3.89,15-1.66S66.46,23.27,65.6,27.51Z"/><path class="cls-4" d="M83.06,24.73c-1-2.25-2-4.42-3.08-6.62a34,34,0,0,0-2-3.82h0a1.06,1.06,0,0,1,.85-1.61c4.47-.26,9.71,4,11.94,9.25s.71,9.8-2.86,12.24a1.06,1.06,0,0,1-1.61-.56c-.29-.92-.59-1.86-.86-2.69C84.64,28.84,83.93,26.77,83.06,24.73Z"/><path class="cls-4" d="M72,29.91c-2.23-5.26-1.64-12,1.67-15a1.06,1.06,0,0,1,1.73.5s0,.1,0,.12a35.15,35.15,0,0,0,1.33,4.11c.85,2.29,1.66,4.57,2.62,6.82.86,2,1.86,4,2.82,6,.39.75.83,1.58,1.28,2.4a1.06,1.06,0,0,1-.71,1.55C78.5,37.23,74.19,35.17,72,29.91Z"/><path class="cls-4" d="M81.09,1.18c2.25-1,4.42-2,6.61-3.09a35.67,35.67,0,0,0,3.82-2h0a1,1,0,0,1,1.6.84c.26,4.48-4,9.71-9.25,11.94S74.08,9.56,71.64,6a1.05,1.05,0,0,1,.57-1.6l2.69-.86C77,2.76,79.05,2,81.09,1.18Z"/><path class="cls-4" d="M75.91-9.93c5.25-2.23,12-1.65,15,1.66a1.06,1.06,0,0,1-.49,1.74l-.13,0A35.83,35.83,0,0,0,86.2-5.16c-2.29.84-4.57,1.66-6.81,2.61-2,.87-4,1.86-6,2.82L71,1.56A1.06,1.06,0,0,1,69.45.85C68.59-3.39,70.64-7.7,75.91-9.93Z"/><path class="cls-4" d="M108.67-1.18c-2.24,1-4.41,2-6.61,3.08a35.74,35.74,0,0,0-3.82,2h0a1.05,1.05,0,0,1-1.6-.84c-.26-4.48,4-9.71,9.25-11.94s9.8-.71,12.24,2.86a1.05,1.05,0,0,1-.56,1.6l-2.69.86C112.79-2.76,110.72-2,108.67-1.18Z"/><path class="cls-4" d="M113.86,9.93c-5.26,2.23-12,1.65-15-1.66a1.06,1.06,0,0,1,.49-1.74l.13,0a35.2,35.2,0,0,0,4.11-1.34c2.29-.85,4.57-1.66,6.82-2.61,2-.87,4-1.86,6-2.82l2.4-1.29a1.06,1.06,0,0,1,1.54.71C121.18,3.38,119.12,7.7,113.86,9.93Z"/><path class="cls-4" d="M114.87,30.19c.83.27,1.77.57,2.69.85a1.06,1.06,0,0,1,.56,1.61c-2.44,3.57-7,5.09-12.24,2.86s-9.51-7.46-9.25-11.94a1.06,1.06,0,0,1,1.6-.85h0a35.67,35.67,0,0,0,3.82,2c2.2,1.06,4.37,2.13,6.61,3.09C110.72,28.7,112.79,29.42,114.87,30.19Z"/><path class="cls-4" d="M120.31,27.51a1.06,1.06,0,0,1-1.54.71l-2.4-1.29c-2-1-4-1.95-6-2.82-2.25-.95-4.53-1.77-6.82-2.61a35.2,35.2,0,0,0-4.11-1.34l-.13,0a1.06,1.06,0,0,1-.49-1.74c3-3.31,9.77-3.89,15-1.66S121.18,23.27,120.31,27.51Z"/></pattern><pattern id="新規パターンスウォッチ_1" data-name="新規パターンスウォッチ 1" width="162.12" height="153.46" patternUnits="userSpaceOnUse" viewBox="0 0 162.12 153.46"><rect class="cls-1" width="162.12" height="153.46"/><path class="cls-2" d="M133,90.37c1,2.24,2,4.41,3.09,6.61a35.67,35.67,0,0,0,2,3.82h0a1.06,1.06,0,0,1-.85,1.61c-4.48.26-9.71-4-11.94-9.25s-.71-9.8,2.86-12.24a1.06,1.06,0,0,1,1.61.56c.28.92.58,1.86.86,2.69C131.46,86.25,132.18,88.32,133,90.37Z"/><path class="cls-2" d="M144.15,85.18c2.23,5.26,1.65,12-1.66,15a1.07,1.07,0,0,1-1.74-.49.63.63,0,0,0,0-.13,35.2,35.2,0,0,0-1.34-4.11c-.84-2.29-1.66-4.57-2.61-6.82-.87-2-1.86-4-2.82-6-.39-.74-.84-1.58-1.29-2.4a1.06,1.06,0,0,1,.72-1.54C137.61,77.86,141.92,79.92,144.15,85.18Z"/><path class="cls-2" d="M135,113.91c-2.25,1-4.42,2-6.62,3.09a35.67,35.67,0,0,0-3.82,2h0a1.07,1.07,0,0,1-1.61-.85c-.26-4.48,4-9.71,9.25-11.94s9.81-.71,12.25,2.86a1.06,1.06,0,0,1-.57,1.61c-.92.28-1.86.58-2.69.86C139.13,112.33,137.06,113.05,135,113.91Z"/><path class="cls-2" d="M140.2,125c-5.26,2.23-12,1.65-15-1.66a1.07,1.07,0,0,1,.5-1.74l.12,0a34.6,34.6,0,0,0,4.11-1.34c2.29-.84,4.57-1.66,6.82-2.61,2-.87,4-1.86,6-2.82.75-.39,1.58-.84,2.4-1.29a1.07,1.07,0,0,1,1.55.72C147.52,118.48,145.46,122.79,140.2,125Z"/><path class="cls-2" d="M141.21,145.28l2.69.86a1.06,1.06,0,0,1,.57,1.6c-2.44,3.57-7,5.1-12.25,2.86s-9.51-7.46-9.25-11.94a1.06,1.06,0,0,1,1.61-.84h0a35.74,35.74,0,0,0,3.82,2c2.2,1.05,4.37,2.13,6.62,3.08C137.06,143.8,139.13,144.51,141.21,145.28Z"/><path class="cls-2" d="M146.66,142.6a1.07,1.07,0,0,1-1.55.71c-.82-.45-1.65-.9-2.4-1.29-2-1-4-2-6-2.82-2.25-.95-4.53-1.76-6.82-2.61a34.6,34.6,0,0,0-4.11-1.34l-.12,0a1.07,1.07,0,0,1-.5-1.74c3-3.31,9.77-3.89,15-1.66S147.52,138.37,146.66,142.6Z"/><path class="cls-2" d="M164.12,139.82c-1-2.25-2-4.42-3.08-6.62a34,34,0,0,0-2-3.82h0a1.07,1.07,0,0,1,.85-1.61c4.47-.25,9.71,4,11.94,9.26s.71,9.8-2.86,12.24a1.06,1.06,0,0,1-1.61-.57c-.28-.92-.59-1.86-.86-2.69C165.7,143.93,165,141.86,164.12,139.82Z"/><path class="cls-2" d="M153,145c-2.23-5.26-1.65-12,1.66-15a1.05,1.05,0,0,1,1.73.49l0,.12a35.3,35.3,0,0,0,1.33,4.12c.85,2.28,1.66,4.56,2.62,6.81.86,2,1.86,4,2.82,6,.39.75.84,1.58,1.28,2.4a1.05,1.05,0,0,1-.71,1.55C159.56,152.32,155.25,150.26,153,145Z"/><path class="cls-2" d="M162.15,116.27c2.25-1,4.42-2,6.62-3.08a36.72,36.72,0,0,0,3.82-2h0a1.06,1.06,0,0,1,1.61.84c.25,4.48-4,9.72-9.26,11.94s-9.8.71-12.24-2.86a1.06,1.06,0,0,1,.57-1.6l2.69-.86C158,117.85,160.11,117.14,162.15,116.27Z"/><path class="cls-2" d="M157,105.16c5.26-2.23,12-1.65,15,1.66a1.06,1.06,0,0,1-.49,1.74l-.12,0a35.36,35.36,0,0,0-4.12,1.34c-2.28.85-4.56,1.66-6.81,2.61-2,.87-4,1.86-6,2.82-.74.39-1.58.84-2.39,1.29a1.06,1.06,0,0,1-1.55-.71C149.65,111.71,151.71,107.39,157,105.16Z"/><path class="cls-2" d="M156,84.91c-.83-.28-1.77-.58-2.69-.86a1.06,1.06,0,0,1-.57-1.61c2.44-3.57,7-5.09,12.24-2.86s9.51,7.46,9.26,11.94a1.07,1.07,0,0,1-1.61.85h0a36.65,36.65,0,0,0-3.82-2c-2.2-1.06-4.37-2.13-6.62-3.09C160.11,86.39,158,85.67,156,84.91Z"/><path class="cls-2" d="M150.51,87.59a1.06,1.06,0,0,1,1.55-.72c.81.45,1.65.9,2.39,1.29,2,1,4,2,6,2.82,2.25,1,4.53,1.77,6.81,2.61a35.36,35.36,0,0,0,4.12,1.34l.12,0A1.05,1.05,0,0,1,172,96.7c-3,3.31-9.76,3.89-15,1.66S149.65,91.82,150.51,87.59Z"/><rect class="cls-1" x="121.59" y="76.73" width="81.06" height="76.73"/><path class="cls-2" d="M52,128.73c1,2.25,2,4.42,3.09,6.62a36.65,36.65,0,0,0,2,3.82h0a1.07,1.07,0,0,1-.85,1.61c-4.48.25-9.71-4-11.94-9.26s-.71-9.8,2.86-12.24a1.07,1.07,0,0,1,1.61.57c.28.92.58,1.86.85,2.69C50.4,124.62,51.12,126.69,52,128.73Z"/><path class="cls-2" d="M63.09,123.55c2.23,5.26,1.65,12-1.66,15a1.06,1.06,0,0,1-1.74-.49.5.5,0,0,0,0-.12,35.36,35.36,0,0,0-1.34-4.12c-.84-2.28-1.66-4.56-2.61-6.81-.87-2-1.86-4-2.82-6-.39-.74-.84-1.58-1.29-2.39a1.06,1.06,0,0,1,.71-1.55C56.55,116.23,60.86,118.29,63.09,123.55Z"/><path class="cls-2" d="M54,152.28c-2.25.95-4.42,2-6.62,3.08a34,34,0,0,0-3.82,2h0a1.06,1.06,0,0,1-1.61-.85c-.26-4.47,4-9.71,9.25-11.93s9.81-.71,12.24,2.85a1.06,1.06,0,0,1-.56,1.61l-2.69.86C58.07,150.7,56,151.41,54,152.28Z"/><path class="cls-2" d="M59.14,163.39c-5.26,2.23-12,1.64-15-1.67a1.06,1.06,0,0,1,.5-1.73l.12,0a34.55,34.55,0,0,0,4.11-1.33c2.29-.85,4.57-1.66,6.82-2.62,2-.86,4-1.85,6-2.82.75-.39,1.58-.83,2.4-1.28a1.06,1.06,0,0,1,1.55.71C66.46,156.84,64.4,161.15,59.14,163.39Z"/><path class="cls-2" d="M81.09,154.63c2.25-.95,4.42-2,6.61-3.08a34,34,0,0,0,3.82-2h0a1.06,1.06,0,0,1,1.6.85c.26,4.48-4,9.71-9.25,11.94s-9.8.71-12.24-2.86a1.06,1.06,0,0,1,.57-1.61c.92-.28,1.86-.58,2.69-.86C77,156.21,79.05,155.5,81.09,154.63Z"/><path class="cls-2" d="M75.91,143.53c5.25-2.23,12-1.65,15,1.66a1.05,1.05,0,0,1-.49,1.73l-.13,0a34,34,0,0,0-4.11,1.34c-2.29.84-4.57,1.66-6.81,2.61-2,.86-4,1.86-6,2.82L71,155a1.06,1.06,0,0,1-1.54-.72C68.59,150.07,70.64,145.76,75.91,143.53Z"/><path class="cls-2" d="M74.9,123.27l-2.69-.86a1.06,1.06,0,0,1-.57-1.6c2.44-3.57,7-5.1,12.24-2.86s9.51,7.46,9.25,11.93a1.06,1.06,0,0,1-1.6.85h0a34,34,0,0,0-3.82-2c-2.19-1-4.36-2.13-6.61-3.08C79.05,124.75,77,124,74.9,123.27Z"/><path class="cls-2" d="M69.45,126a1.05,1.05,0,0,1,1.54-.71l2.4,1.29c2,1,4,1.95,6,2.81,2.24,1,4.52,1.77,6.81,2.62a35.77,35.77,0,0,0,4.11,1.33l.13,0a1.06,1.06,0,0,1,.49,1.74c-3,3.3-9.77,3.89-15,1.66S68.59,130.18,69.45,126Z"/><path class="cls-2" d="M106.7,128.73c1,2.25,2,4.42,3.08,6.62a36.72,36.72,0,0,0,2,3.82h0a1.06,1.06,0,0,1-.84,1.61c-4.48.25-9.71-4-11.94-9.26s-.71-9.8,2.86-12.24a1.06,1.06,0,0,1,1.6.57c.29.92.59,1.86.86,2.69C105.12,124.62,105.84,126.69,106.7,128.73Z"/><path class="cls-2" d="M117.81,123.55c2.23,5.26,1.65,12-1.66,15a1.06,1.06,0,0,1-1.74-.49c0-.06,0-.1,0-.12a35.36,35.36,0,0,0-1.34-4.12c-.85-2.28-1.66-4.56-2.61-6.81-.87-2-1.86-4-2.82-6-.39-.74-.84-1.58-1.29-2.39a1.06,1.06,0,0,1,.71-1.55C111.26,116.23,115.58,118.29,117.81,123.55Z"/><path class="cls-2" d="M108.67,152.28c-2.24.95-4.41,2-6.61,3.08a34,34,0,0,0-3.82,2h0a1.06,1.06,0,0,1-1.6-.85c-.26-4.47,4-9.71,9.25-11.93s9.8-.71,12.24,2.85a1.06,1.06,0,0,1-.56,1.61l-2.69.86C112.79,150.7,110.72,151.41,108.67,152.28Z"/><path class="cls-2" d="M113.86,163.39c-5.26,2.23-12,1.64-15-1.67a1.05,1.05,0,0,1,.49-1.73l.13,0a35.15,35.15,0,0,0,4.11-1.33c2.29-.85,4.57-1.66,6.82-2.62,2-.86,4-1.85,6-2.82.74-.39,1.58-.83,2.4-1.28a1.05,1.05,0,0,1,1.54.71C121.18,156.84,119.12,161.15,113.86,163.39Z"/><rect class="cls-1" x="40.53" y="115.09" width="81.06" height="76.73"/><path class="cls-2" d="M2,139.82c-.95-2.25-2-4.42-3.08-6.62a34,34,0,0,0-2-3.82h0a1.07,1.07,0,0,1,.85-1.61c4.47-.25,9.71,4,11.93,9.26s.71,9.8-2.86,12.24a1.06,1.06,0,0,1-1.6-.57c-.29-.92-.59-1.86-.86-2.69C3.58,143.93,2.87,141.86,2,139.82Z"/><path class="cls-2" d="M-9.11,145c-2.23-5.26-1.64-12,1.66-15a1.06,1.06,0,0,1,1.74.49l0,.12a35.3,35.3,0,0,0,1.33,4.12c.85,2.28,1.66,4.56,2.62,6.81.86,2,1.85,4,2.81,6,.4.75.84,1.58,1.29,2.4a1.06,1.06,0,0,1-.71,1.55C-2.56,152.32-6.87,150.26-9.11,145Z"/><path class="cls-2" d="M0,116.27c2.25-1,4.42-2,6.61-3.08a35.74,35.74,0,0,0,3.82-2h0a1.05,1.05,0,0,1,1.6.84c.26,4.48-4,9.72-9.25,11.94s-9.8.71-12.24-2.86a1.06,1.06,0,0,1,.56-1.6l2.7-.86C-4.09,117.85-2,117.14,0,116.27Z"/><path class="cls-2" d="M-5.16,105.16c5.26-2.23,12-1.65,15,1.66a1.06,1.06,0,0,1-.49,1.74l-.13,0a35.83,35.83,0,0,0-4.11,1.34c-2.29.85-4.57,1.66-6.81,2.61-2.05.87-4,1.86-6,2.82l-2.4,1.29a1.05,1.05,0,0,1-1.54-.71C-12.48,111.71-10.42,107.39-5.16,105.16Z"/><path class="cls-2" d="M-6.16,84.91c-.83-.28-1.77-.58-2.7-.86a1.07,1.07,0,0,1-.56-1.61c2.44-3.57,7-5.09,12.24-2.86S12.33,87,12.07,91.52a1.06,1.06,0,0,1-1.6.85h0a35.67,35.67,0,0,0-3.82-2C4.45,89.28,2.28,88.21,0,87.25-2,86.39-4.09,85.67-6.16,84.91Z"/><path class="cls-2" d="M-11.61,87.59a1.06,1.06,0,0,1,1.54-.72l2.4,1.29c2,1,4,2,6,2.82,2.24,1,4.52,1.77,6.81,2.61a35.83,35.83,0,0,0,4.11,1.34l.13,0a1.05,1.05,0,0,1,.49,1.73c-3,3.31-9.77,3.89-15,1.66S-12.48,91.82-11.61,87.59Z"/><path class="cls-2" d="M25.64,90.37c.95,2.24,2,4.41,3.08,6.61a35.74,35.74,0,0,0,2,3.82h0a1.06,1.06,0,0,1-.84,1.61c-4.48.26-9.72-4-11.94-9.25s-.71-9.8,2.86-12.24a1.05,1.05,0,0,1,1.6.56c.29.92.59,1.86.86,2.69C24.06,86.25,24.77,88.32,25.64,90.37Z"/><path class="cls-2" d="M36.75,85.18c2.23,5.26,1.65,12-1.66,15a1.07,1.07,0,0,1-1.74-.49.53.53,0,0,1,0-.13A35.2,35.2,0,0,0,32,95.48c-.85-2.29-1.66-4.57-2.61-6.82-.87-2-1.86-4-2.82-6-.39-.74-.84-1.58-1.29-2.4A1.05,1.05,0,0,1,26,78.73C30.2,77.86,34.52,79.92,36.75,85.18Z"/><path class="cls-2" d="M27.61,113.91c-2.24,1-4.41,2-6.61,3.09a35.67,35.67,0,0,0-3.82,2h0a1.06,1.06,0,0,1-1.6-.85c-.26-4.48,4-9.71,9.25-11.94s9.8-.71,12.24,2.86a1.06,1.06,0,0,1-.56,1.61c-.93.28-1.87.58-2.69.86C31.73,112.33,29.66,113.05,27.61,113.91Z"/><path class="cls-2" d="M32.8,125c-5.26,2.23-12,1.65-15-1.66a1.06,1.06,0,0,1,.49-1.74l.13,0a35.83,35.83,0,0,0,4.11-1.34c2.29-.84,4.57-1.66,6.81-2.61,2.05-.87,4-1.86,6-2.82l2.4-1.29a1.06,1.06,0,0,1,1.54.72C40.12,118.48,38.06,122.79,32.8,125Z"/><path class="cls-2" d="M33.81,145.28l2.69.86a1.05,1.05,0,0,1,.56,1.6c-2.44,3.57-7,5.1-12.24,2.86s-9.51-7.46-9.25-11.94a1.05,1.05,0,0,1,1.6-.84h0a35.74,35.74,0,0,0,3.82,2c2.2,1.05,4.37,2.13,6.61,3.08C29.66,143.8,31.73,144.51,33.81,145.28Z"/><path class="cls-2" d="M39.25,142.6a1.06,1.06,0,0,1-1.54.71L35.31,142c-2-1-4-2-6-2.82-2.24-.95-4.52-1.76-6.81-2.61a35.83,35.83,0,0,0-4.11-1.34l-.13,0a1.06,1.06,0,0,1-.49-1.74c3-3.31,9.77-3.89,15-1.66S40.12,138.37,39.25,142.6Z"/><rect class="cls-1" x="-40.53" y="76.73" width="81.06" height="76.73"/><path class="cls-2" d="M133,13.64c1,2.24,2,4.41,3.09,6.61a35.67,35.67,0,0,0,2,3.82h0a1.06,1.06,0,0,1-.85,1.6c-4.48.26-9.71-4-11.94-9.25s-.71-9.8,2.86-12.24a1.06,1.06,0,0,1,1.61.56c.28.93.58,1.87.86,2.69C131.46,9.52,132.18,11.59,133,13.64Z"/><path class="cls-2" d="M144.15,8.45c2.23,5.26,1.65,12-1.66,15a1.06,1.06,0,0,1-1.74-.49.86.86,0,0,0,0-.13,35.83,35.83,0,0,0-1.34-4.11c-.84-2.29-1.66-4.57-2.61-6.81-.87-2-1.86-4-2.82-6-.39-.74-.84-1.58-1.29-2.4A1.06,1.06,0,0,1,133.38,2C137.61,1.13,141.92,3.19,144.15,8.45Z"/><path class="cls-2" d="M135,37.19c-2.25,1-4.42,2-6.62,3.08a34,34,0,0,0-3.82,2h0a1.07,1.07,0,0,1-1.61-.85c-.26-4.48,4-9.71,9.25-11.94s9.81-.71,12.25,2.86A1.06,1.06,0,0,1,143.9,34c-.92.28-1.86.58-2.69.86C139.13,35.6,137.06,36.32,135,37.19Z"/><path class="cls-2" d="M140.2,48.29c-5.26,2.23-12,1.65-15-1.66a1.06,1.06,0,0,1,.5-1.73l.12,0a34.6,34.6,0,0,0,4.11-1.34c2.29-.84,4.57-1.66,6.82-2.61,2-.87,4-1.86,6-2.82.75-.39,1.58-.84,2.4-1.29a1.07,1.07,0,0,1,1.55.72C147.52,41.75,145.46,46.06,140.2,48.29Z"/><path class="cls-2" d="M141.21,68.55l2.69.86a1.06,1.06,0,0,1,.57,1.6c-2.44,3.57-7,5.1-12.25,2.86s-9.51-7.46-9.25-11.93a1.06,1.06,0,0,1,1.61-.85h0a35.74,35.74,0,0,0,3.82,2c2.2,1.05,4.37,2.13,6.62,3.08C137.06,67.07,139.13,67.78,141.21,68.55Z"/><path class="cls-2" d="M146.66,65.87a1.06,1.06,0,0,1-1.55.71l-2.4-1.29c-2-1-4-2-6-2.81-2.25-1-4.53-1.77-6.82-2.62a36.52,36.52,0,0,0-4.11-1.34l-.12,0a1.06,1.06,0,0,1-.5-1.74c3-3.3,9.77-3.89,15-1.66S147.52,61.64,146.66,65.87Z"/><path class="cls-2" d="M164.12,63.09c-1-2.25-2-4.42-3.08-6.62a34.91,34.91,0,0,0-2-3.82h0a1.07,1.07,0,0,1,.85-1.61c4.47-.25,9.71,4,11.94,9.26s.71,9.8-2.86,12.24a1.06,1.06,0,0,1-1.61-.57c-.28-.92-.59-1.86-.86-2.69C165.7,67.2,165,65.13,164.12,63.09Z"/><path class="cls-2" d="M153,68.27c-2.23-5.26-1.65-12,1.66-15a1.05,1.05,0,0,1,1.73.49l0,.12A35.3,35.3,0,0,0,157.78,58c.85,2.28,1.66,4.56,2.62,6.81.86,2,1.86,4,2.82,6,.39.74.84,1.58,1.28,2.39a1.05,1.05,0,0,1-.71,1.55C159.56,75.59,155.25,73.53,153,68.27Z"/><path class="cls-2" d="M162.15,39.54c2.25-.95,4.42-2,6.62-3.08a34.91,34.91,0,0,0,3.82-2h0a1.07,1.07,0,0,1,1.61.85c.25,4.47-4,9.71-9.26,11.93s-9.8.71-12.24-2.86a1.06,1.06,0,0,1,.57-1.6l2.69-.86C158,41.12,160.11,40.41,162.15,39.54Z"/><path class="cls-2" d="M157,28.43c5.26-2.23,12-1.64,15,1.66a1.06,1.06,0,0,1-.49,1.74l-.12,0a35.3,35.3,0,0,0-4.12,1.33c-2.28.85-4.56,1.66-6.81,2.62-2,.86-4,1.85-6,2.81-.74.4-1.58.84-2.39,1.29a1.06,1.06,0,0,1-1.55-.71C149.65,35,151.71,30.67,157,28.43Z"/><path class="cls-2" d="M156,8.18c-.83-.28-1.77-.58-2.69-.86a1.06,1.06,0,0,1-.57-1.61c2.44-3.57,7-5.09,12.24-2.86s9.51,7.46,9.26,11.94a1.07,1.07,0,0,1-1.61.85h0a34.91,34.91,0,0,0-3.82-2c-2.2-1.06-4.37-2.13-6.62-3.08C160.11,9.66,158,9,156,8.18Z"/><path class="cls-2" d="M150.51,10.86a1.06,1.06,0,0,1,1.55-.72c.81.45,1.65.9,2.39,1.29,2,1,4,2,6,2.82,2.25.95,4.53,1.77,6.81,2.61a33.56,33.56,0,0,0,4.12,1.34l.12,0A1.05,1.05,0,0,1,172,20c-3,3.31-9.76,3.89-15,1.66S149.65,15.09,150.51,10.86Z"/><rect class="cls-1" x="121.59" width="81.06" height="76.73"/><path class="cls-2" d="M52,52c1,2.25,2,4.42,3.09,6.62a35.67,35.67,0,0,0,2,3.82h0a1.07,1.07,0,0,1-.85,1.61c-4.48.25-9.71-4-11.94-9.26S43.6,45,47.17,42.55a1.07,1.07,0,0,1,1.61.57c.28.92.58,1.86.85,2.69C50.4,47.89,51.12,50,52,52Z"/><path class="cls-2" d="M63.09,46.82c2.23,5.26,1.65,12-1.66,15a1.06,1.06,0,0,1-1.74-.49.5.5,0,0,0,0-.12,35.36,35.36,0,0,0-1.34-4.12c-.84-2.28-1.66-4.56-2.61-6.81-.87-2-1.86-4-2.82-6-.39-.75-.84-1.58-1.29-2.4a1.06,1.06,0,0,1,.71-1.55C56.55,39.5,60.86,41.56,63.09,46.82Z"/><path class="cls-2" d="M54,75.55c-2.25,1-4.42,2-6.62,3.08a35.74,35.74,0,0,0-3.82,2h0a1.06,1.06,0,0,1-1.61-.84c-.26-4.48,4-9.72,9.25-11.94S61,67.17,63.4,70.74a1,1,0,0,1-.56,1.6l-2.69.86C58.07,74,56,74.68,54,75.55Z"/><path class="cls-2" d="M59.14,86.66c-5.26,2.23-12,1.64-15-1.66a1.07,1.07,0,0,1,.5-1.74l.12,0a34.6,34.6,0,0,0,4.11-1.34c2.29-.85,4.57-1.66,6.82-2.61,2-.87,4-1.86,6-2.82l2.4-1.29a1.06,1.06,0,0,1,1.55.71C66.46,80.11,64.4,84.43,59.14,86.66Z"/><path class="cls-2" d="M60.15,106.91c.83.28,1.77.58,2.69.86a1.06,1.06,0,0,1,.56,1.61c-2.43,3.57-7,5.09-12.24,2.86s-9.51-7.46-9.25-11.94a1.06,1.06,0,0,1,1.61-.85h0a35.67,35.67,0,0,0,3.82,2c2.2,1.06,4.37,2.13,6.62,3.08C56,105.43,58.07,106.15,60.15,106.91Z"/><path class="cls-2" d="M65.6,104.23a1.07,1.07,0,0,1-1.55.72c-.82-.45-1.65-.9-2.4-1.29-2-1-3.95-2-6-2.82-2.25-1-4.53-1.77-6.82-2.61a34.6,34.6,0,0,0-4.11-1.34l-.12,0a1.06,1.06,0,0,1-.5-1.73c3-3.31,9.77-3.89,15-1.66S66.46,100,65.6,104.23Z"/><path class="cls-2" d="M83.06,101.45c-1-2.24-2-4.41-3.08-6.61A34,34,0,0,0,78,91h0a1.06,1.06,0,0,1,.85-1.6c4.47-.26,9.71,4,11.94,9.25s.71,9.8-2.86,12.24a1.06,1.06,0,0,1-1.61-.56c-.29-.92-.59-1.86-.86-2.69C84.64,105.57,83.93,103.5,83.06,101.45Z"/><path class="cls-2" d="M72,106.64c-2.23-5.26-1.64-12,1.67-15a1.05,1.05,0,0,1,1.73.49c0,.06,0,.11,0,.13a35.15,35.15,0,0,0,1.33,4.11c.85,2.29,1.66,4.57,2.62,6.82.86,2,1.86,4,2.82,6,.39.74.83,1.58,1.28,2.4a1.05,1.05,0,0,1-.71,1.54C78.5,114,74.19,111.9,72,106.64Z"/><path class="cls-2" d="M81.09,77.91c2.25-1,4.42-2,6.61-3.09a35.67,35.67,0,0,0,3.82-2h0a1.06,1.06,0,0,1,1.6.85c.26,4.48-4,9.71-9.25,11.94s-9.8.71-12.24-2.86a1.06,1.06,0,0,1,.57-1.61c.92-.28,1.86-.58,2.69-.86C77,79.49,79.05,78.77,81.09,77.91Z"/><path class="cls-2" d="M75.91,66.8c5.25-2.23,12-1.65,15,1.66a1.05,1.05,0,0,1-.49,1.73l-.13,0a35.83,35.83,0,0,0-4.11,1.34c-2.29.84-4.57,1.66-6.81,2.61-2,.87-4,1.86-6,2.82L71,78.29a1.06,1.06,0,0,1-1.54-.72C68.59,73.34,70.64,69,75.91,66.8Z"/><path class="cls-2" d="M74.9,46.54l-2.69-.86a1.06,1.06,0,0,1-.57-1.6c2.44-3.57,7-5.1,12.24-2.86s9.51,7.46,9.25,11.94a1.05,1.05,0,0,1-1.6.84h0a35.74,35.74,0,0,0-3.82-2c-2.19-1-4.36-2.13-6.61-3.08C79.05,48,77,47.31,74.9,46.54Z"/><path class="cls-2" d="M69.45,49.22A1.05,1.05,0,0,1,71,48.51l2.4,1.29c2,1,4,2,6,2.82,2.24,1,4.52,1.76,6.81,2.61a35.83,35.83,0,0,0,4.11,1.34l.13,0a1.06,1.06,0,0,1,.49,1.74c-3,3.31-9.77,3.89-15,1.66S68.59,53.45,69.45,49.22Z"/><path class="cls-2" d="M106.7,52c1,2.25,2,4.42,3.08,6.62a35.74,35.74,0,0,0,2,3.82h0a1.06,1.06,0,0,1-.84,1.61c-4.48.25-9.71-4-11.94-9.26s-.71-9.8,2.86-12.24a1.06,1.06,0,0,1,1.6.57c.29.92.59,1.86.86,2.69C105.12,47.89,105.84,50,106.7,52Z"/><path class="cls-2" d="M117.81,46.82c2.23,5.26,1.65,12-1.66,15a1.06,1.06,0,0,1-1.74-.49c0-.06,0-.1,0-.12A35.36,35.36,0,0,0,113,57.11c-.85-2.28-1.66-4.56-2.61-6.81-.87-2-1.86-4-2.82-6-.39-.75-.84-1.58-1.29-2.4a1.06,1.06,0,0,1,.71-1.55C111.26,39.5,115.58,41.56,117.81,46.82Z"/><path class="cls-2" d="M108.67,75.55c-2.24,1-4.41,2-6.61,3.08a35.74,35.74,0,0,0-3.82,2h0a1.05,1.05,0,0,1-1.6-.84c-.26-4.48,4-9.72,9.25-11.94s9.8-.71,12.24,2.86a1.05,1.05,0,0,1-.56,1.6l-2.69.86C112.79,74,110.72,74.68,108.67,75.55Z"/><path class="cls-2" d="M113.86,86.66c-5.26,2.23-12,1.64-15-1.66a1.06,1.06,0,0,1,.49-1.74l.13,0a35.2,35.2,0,0,0,4.11-1.34c2.29-.85,4.57-1.66,6.82-2.61,2-.87,4-1.86,6-2.82l2.4-1.29a1.05,1.05,0,0,1,1.54.71C121.18,80.11,119.12,84.43,113.86,86.66Z"/><path class="cls-2" d="M114.87,106.91c.83.28,1.77.58,2.69.86a1.06,1.06,0,0,1,.56,1.61c-2.44,3.57-7,5.09-12.24,2.86s-9.51-7.46-9.25-11.94a1.06,1.06,0,0,1,1.6-.85h0a35.67,35.67,0,0,0,3.82,2c2.2,1.06,4.37,2.13,6.61,3.08C110.72,105.43,112.79,106.15,114.87,106.91Z"/><path class="cls-2" d="M120.31,104.23a1.06,1.06,0,0,1-1.54.72l-2.4-1.29c-2-1-4-2-6-2.82-2.25-1-4.53-1.77-6.82-2.61a35.2,35.2,0,0,0-4.11-1.34l-.13,0a1.05,1.05,0,0,1-.49-1.73c3-3.31,9.77-3.89,15-1.66S121.18,100,120.31,104.23Z"/><rect class="cls-1" x="40.53" y="38.36" width="81.06" height="76.73"/><path class="cls-2" d="M2,63.09c-.95-2.25-2-4.42-3.08-6.62a34.91,34.91,0,0,0-2-3.82h0A1.07,1.07,0,0,1-2.26,51c4.47-.25,9.71,4,11.93,9.26s.71,9.8-2.86,12.24A1.06,1.06,0,0,1,5.21,72c-.29-.92-.59-1.86-.86-2.69C3.58,67.2,2.87,65.13,2,63.09Z"/><path class="cls-2" d="M-9.11,68.27c-2.23-5.26-1.64-12,1.66-15a1.06,1.06,0,0,1,1.74.49c0,.06,0,.1,0,.12A35.3,35.3,0,0,0-4.34,58c.85,2.28,1.66,4.56,2.62,6.81.86,2,1.85,4,2.81,6,.4.74.84,1.58,1.29,2.39a1.06,1.06,0,0,1-.71,1.55C-2.56,75.59-6.87,73.53-9.11,68.27Z"/><path class="cls-2" d="M0,39.54c2.25-.95,4.42-2,6.61-3.08a34,34,0,0,0,3.82-2h0a1.06,1.06,0,0,1,1.6.85c.26,4.47-4,9.71-9.25,11.93s-9.8.71-12.24-2.86a1.06,1.06,0,0,1,.56-1.6l2.7-.86C-4.09,41.12-2,40.41,0,39.54Z"/><path class="cls-2" d="M-5.16,28.43c5.26-2.23,12-1.64,15,1.66a1.06,1.06,0,0,1-.49,1.74l-.13,0A35.77,35.77,0,0,0,5.14,33.2c-2.29.85-4.57,1.66-6.81,2.62-2.05.86-4,1.85-6,2.81l-2.4,1.29a1.05,1.05,0,0,1-1.54-.71C-12.48,35-10.42,30.67-5.16,28.43Z"/><path class="cls-2" d="M-6.16,8.18C-7,7.9-7.93,7.6-8.86,7.32a1.07,1.07,0,0,1-.56-1.61C-7,2.14-2.44.62,2.82,2.85s9.51,7.46,9.25,11.94a1.06,1.06,0,0,1-1.6.85h0a34,34,0,0,0-3.82-2C4.45,12.55,2.28,11.48,0,10.53-2,9.66-4.09,9-6.16,8.18Z"/><path class="cls-2" d="M-11.61,10.86a1.06,1.06,0,0,1,1.54-.72l2.4,1.29c2,1,4,2,6,2.82C.57,15.2,2.85,16,5.14,16.86A34,34,0,0,0,9.25,18.2l.13,0A1.05,1.05,0,0,1,9.87,20c-3,3.31-9.77,3.89-15,1.66S-12.48,15.09-11.61,10.86Z"/><path class="cls-2" d="M25.64,13.64c.95,2.24,2,4.41,3.08,6.61a35.74,35.74,0,0,0,2,3.82h0a1.05,1.05,0,0,1-.84,1.6c-4.48.26-9.72-4-11.94-9.25s-.71-9.8,2.86-12.24a1.05,1.05,0,0,1,1.6.56c.29.93.59,1.87.86,2.69C24.06,9.52,24.77,11.59,25.64,13.64Z"/><path class="cls-2" d="M36.75,8.45c2.23,5.26,1.65,12-1.66,15A1.06,1.06,0,0,1,33.35,23a.45.45,0,0,1,0-.13A35.83,35.83,0,0,0,32,18.75c-.85-2.29-1.66-4.57-2.61-6.81-.87-2-1.86-4-2.82-6-.39-.74-.84-1.58-1.29-2.4A1.05,1.05,0,0,1,26,2C30.2,1.13,34.52,3.19,36.75,8.45Z"/><path class="cls-2" d="M27.61,37.19c-2.24,1-4.41,2-6.61,3.08a34,34,0,0,0-3.82,2h0a1.06,1.06,0,0,1-1.6-.85c-.26-4.48,4-9.71,9.25-11.94s9.8-.71,12.24,2.86A1.06,1.06,0,0,1,36.5,34c-.93.28-1.87.58-2.69.86C31.73,35.6,29.66,36.32,27.61,37.19Z"/><path class="cls-2" d="M32.8,48.29c-5.26,2.23-12,1.65-15-1.66a1.05,1.05,0,0,1,.49-1.73l.13,0a35.83,35.83,0,0,0,4.11-1.34c2.29-.84,4.57-1.66,6.81-2.61,2.05-.87,4-1.86,6-2.82l2.4-1.29a1.06,1.06,0,0,1,1.54.72C40.12,41.75,38.06,46.06,32.8,48.29Z"/><path class="cls-2" d="M33.81,68.55l2.69.86a1.05,1.05,0,0,1,.56,1.6c-2.44,3.57-7,5.1-12.24,2.86s-9.51-7.46-9.25-11.93a1.05,1.05,0,0,1,1.6-.85h0a35.74,35.74,0,0,0,3.82,2c2.2,1.05,4.37,2.13,6.61,3.08C29.66,67.07,31.73,67.78,33.81,68.55Z"/><path class="cls-2" d="M39.25,65.87a1.05,1.05,0,0,1-1.54.71l-2.4-1.29c-2-1-4-2-6-2.81-2.24-1-4.52-1.77-6.81-2.62a37.89,37.89,0,0,0-4.11-1.34l-.13,0a1.06,1.06,0,0,1-.49-1.74c3-3.3,9.77-3.89,15-1.66S40.12,61.64,39.25,65.87Z"/><rect class="cls-1" x="-40.53" width="81.06" height="76.73"/><path class="cls-2" d="M54-1.18c-2.25,1-4.42,2-6.62,3.08a35.74,35.74,0,0,0-3.82,2h0a1.06,1.06,0,0,1-1.61-.84c-.26-4.48,4-9.71,9.25-11.94S61-9.56,63.4-6a1,1,0,0,1-.56,1.6l-2.69.86C58.07-2.76,56-2,54-1.18Z"/><path class="cls-2" d="M59.14,9.93c-5.26,2.23-12,1.65-15-1.66a1.07,1.07,0,0,1,.5-1.74l.12,0a34.6,34.6,0,0,0,4.11-1.34c2.29-.85,4.57-1.66,6.82-2.61,2-.87,4-1.86,6-2.82.75-.39,1.58-.84,2.4-1.29a1.07,1.07,0,0,1,1.55.71C66.46,3.38,64.4,7.7,59.14,9.93Z"/><path class="cls-2" d="M60.15,30.19c.83.27,1.77.57,2.69.85a1.06,1.06,0,0,1,.56,1.61c-2.43,3.57-7,5.09-12.24,2.86s-9.51-7.46-9.25-11.94a1.06,1.06,0,0,1,1.61-.85h0a35.67,35.67,0,0,0,3.82,2c2.2,1.06,4.37,2.13,6.62,3.09C56,28.7,58.07,29.42,60.15,30.19Z"/><path class="cls-2" d="M65.6,27.51a1.07,1.07,0,0,1-1.55.71c-.82-.45-1.65-.9-2.4-1.29-2-1-3.95-1.95-6-2.82-2.25-.95-4.53-1.77-6.82-2.61a34.6,34.6,0,0,0-4.11-1.34l-.12,0a1.07,1.07,0,0,1-.5-1.74c3-3.31,9.77-3.89,15-1.66S66.46,23.27,65.6,27.51Z"/><path class="cls-2" d="M83.06,24.73c-1-2.25-2-4.42-3.08-6.62a34,34,0,0,0-2-3.82h0a1.06,1.06,0,0,1,.85-1.61c4.47-.26,9.71,4,11.94,9.25s.71,9.8-2.86,12.24a1.06,1.06,0,0,1-1.61-.56c-.29-.92-.59-1.86-.86-2.69C84.64,28.84,83.93,26.77,83.06,24.73Z"/><path class="cls-2" d="M72,29.91c-2.23-5.26-1.64-12,1.67-15a1.06,1.06,0,0,1,1.73.5s0,.1,0,.12a35.15,35.15,0,0,0,1.33,4.11c.85,2.29,1.66,4.57,2.62,6.82.86,2,1.86,4,2.82,6,.39.75.83,1.58,1.28,2.4a1.06,1.06,0,0,1-.71,1.55C78.5,37.23,74.19,35.17,72,29.91Z"/><path class="cls-2" d="M81.09,1.18c2.25-1,4.42-2,6.61-3.09a35.67,35.67,0,0,0,3.82-2h0a1,1,0,0,1,1.6.84c.26,4.48-4,9.71-9.25,11.94S74.08,9.56,71.64,6a1.05,1.05,0,0,1,.57-1.6l2.69-.86C77,2.76,79.05,2,81.09,1.18Z"/><path class="cls-2" d="M75.91-9.93c5.25-2.23,12-1.65,15,1.66a1.06,1.06,0,0,1-.49,1.74l-.13,0A35.83,35.83,0,0,0,86.2-5.16c-2.29.84-4.57,1.66-6.81,2.61-2,.87-4,1.86-6,2.82L71,1.56A1.06,1.06,0,0,1,69.45.85C68.59-3.39,70.64-7.7,75.91-9.93Z"/><path class="cls-2" d="M108.67-1.18c-2.24,1-4.41,2-6.61,3.08a35.74,35.74,0,0,0-3.82,2h0a1.05,1.05,0,0,1-1.6-.84c-.26-4.48,4-9.71,9.25-11.94s9.8-.71,12.24,2.86a1.05,1.05,0,0,1-.56,1.6l-2.69.86C112.79-2.76,110.72-2,108.67-1.18Z"/><path class="cls-2" d="M113.86,9.93c-5.26,2.23-12,1.65-15-1.66a1.06,1.06,0,0,1,.49-1.74l.13,0a35.2,35.2,0,0,0,4.11-1.34c2.29-.85,4.57-1.66,6.82-2.61,2-.87,4-1.86,6-2.82l2.4-1.29a1.06,1.06,0,0,1,1.54.71C121.18,3.38,119.12,7.7,113.86,9.93Z"/><path class="cls-2" d="M114.87,30.19c.83.27,1.77.57,2.69.85a1.06,1.06,0,0,1,.56,1.61c-2.44,3.57-7,5.09-12.24,2.86s-9.51-7.46-9.25-11.94a1.06,1.06,0,0,1,1.6-.85h0a35.67,35.67,0,0,0,3.82,2c2.2,1.06,4.37,2.13,6.61,3.09C110.72,28.7,112.79,29.42,114.87,30.19Z"/><path class="cls-2" d="M120.31,27.51a1.06,1.06,0,0,1-1.54.71l-2.4-1.29c-2-1-4-1.95-6-2.82-2.25-.95-4.53-1.77-6.82-2.61a35.2,35.2,0,0,0-4.11-1.34l-.13,0a1.06,1.06,0,0,1-.49-1.74c3-3.31,9.77-3.89,15-1.66S121.18,23.27,120.31,27.51Z"/><rect class="cls-1" x="40.53" y="-38.36" width="81.06" height="76.73"/></pattern><pattern id="新規パターンスウォッチ_2" data-name="新規パターンスウォッチ 2" width="162.12" height="153.46" patternUnits="userSpaceOnUse" viewBox="0 0 162.12 153.46"><rect class="cls-1" width="162.12" height="153.46"/><path class="cls-3" d="M133,90.37c1,2.24,2,4.41,3.09,6.61a35.67,35.67,0,0,0,2,3.82h0a1.06,1.06,0,0,1-.85,1.61c-4.48.26-9.71-4-11.94-9.25s-.71-9.8,2.86-12.24a1.06,1.06,0,0,1,1.61.56c.28.92.58,1.86.86,2.69C131.46,86.25,132.18,88.32,133,90.37Z"/><path class="cls-3" d="M144.15,85.18c2.23,5.26,1.65,12-1.66,15a1.07,1.07,0,0,1-1.74-.49.63.63,0,0,0,0-.13,35.2,35.2,0,0,0-1.34-4.11c-.84-2.29-1.66-4.57-2.61-6.82-.87-2-1.86-4-2.82-6-.39-.74-.84-1.58-1.29-2.4a1.06,1.06,0,0,1,.72-1.54C137.61,77.86,141.92,79.92,144.15,85.18Z"/><path class="cls-3" d="M135,113.91c-2.25,1-4.42,2-6.62,3.09a35.67,35.67,0,0,0-3.82,2h0a1.07,1.07,0,0,1-1.61-.85c-.26-4.48,4-9.71,9.25-11.94s9.81-.71,12.25,2.86a1.06,1.06,0,0,1-.57,1.61c-.92.28-1.86.58-2.69.86C139.13,112.33,137.06,113.05,135,113.91Z"/><path class="cls-3" d="M140.2,125c-5.26,2.23-12,1.65-15-1.66a1.07,1.07,0,0,1,.5-1.74l.12,0a34.6,34.6,0,0,0,4.11-1.34c2.29-.84,4.57-1.66,6.82-2.61,2-.87,4-1.86,6-2.82.75-.39,1.58-.84,2.4-1.29a1.07,1.07,0,0,1,1.55.72C147.52,118.48,145.46,122.79,140.2,125Z"/><path class="cls-3" d="M141.21,145.28l2.69.86a1.06,1.06,0,0,1,.57,1.6c-2.44,3.57-7,5.1-12.25,2.86s-9.51-7.46-9.25-11.94a1.06,1.06,0,0,1,1.61-.84h0a35.74,35.74,0,0,0,3.82,2c2.2,1.05,4.37,2.13,6.62,3.08C137.06,143.8,139.13,144.51,141.21,145.28Z"/><path class="cls-3" d="M146.66,142.6a1.07,1.07,0,0,1-1.55.71c-.82-.45-1.65-.9-2.4-1.29-2-1-4-2-6-2.82-2.25-.95-4.53-1.76-6.82-2.61a34.6,34.6,0,0,0-4.11-1.34l-.12,0a1.07,1.07,0,0,1-.5-1.74c3-3.31,9.77-3.89,15-1.66S147.52,138.37,146.66,142.6Z"/><path class="cls-3" d="M164.12,139.82c-1-2.25-2-4.42-3.08-6.62a34,34,0,0,0-2-3.82h0a1.07,1.07,0,0,1,.85-1.61c4.47-.25,9.71,4,11.94,9.26s.71,9.8-2.86,12.24a1.06,1.06,0,0,1-1.61-.57c-.28-.92-.59-1.86-.86-2.69C165.7,143.93,165,141.86,164.12,139.82Z"/><path class="cls-3" d="M153,145c-2.23-5.26-1.65-12,1.66-15a1.05,1.05,0,0,1,1.73.49l0,.12a35.3,35.3,0,0,0,1.33,4.12c.85,2.28,1.66,4.56,2.62,6.81.86,2,1.86,4,2.82,6,.39.75.84,1.58,1.28,2.4a1.05,1.05,0,0,1-.71,1.55C159.56,152.32,155.25,150.26,153,145Z"/><path class="cls-3" d="M162.15,116.27c2.25-1,4.42-2,6.62-3.08a36.72,36.72,0,0,0,3.82-2h0a1.06,1.06,0,0,1,1.61.84c.25,4.48-4,9.72-9.26,11.94s-9.8.71-12.24-2.86a1.06,1.06,0,0,1,.57-1.6l2.69-.86C158,117.85,160.11,117.14,162.15,116.27Z"/><path class="cls-3" d="M157,105.16c5.26-2.23,12-1.65,15,1.66a1.06,1.06,0,0,1-.49,1.74l-.12,0a35.36,35.36,0,0,0-4.12,1.34c-2.28.85-4.56,1.66-6.81,2.61-2,.87-4,1.86-6,2.82-.74.39-1.58.84-2.39,1.29a1.06,1.06,0,0,1-1.55-.71C149.65,111.71,151.71,107.39,157,105.16Z"/><path class="cls-3" d="M156,84.91c-.83-.28-1.77-.58-2.69-.86a1.06,1.06,0,0,1-.57-1.61c2.44-3.57,7-5.09,12.24-2.86s9.51,7.46,9.26,11.94a1.07,1.07,0,0,1-1.61.85h0a36.65,36.65,0,0,0-3.82-2c-2.2-1.06-4.37-2.13-6.62-3.09C160.11,86.39,158,85.67,156,84.91Z"/><path class="cls-3" d="M150.51,87.59a1.06,1.06,0,0,1,1.55-.72c.81.45,1.65.9,2.39,1.29,2,1,4,2,6,2.82,2.25,1,4.53,1.77,6.81,2.61a35.36,35.36,0,0,0,4.12,1.34l.12,0A1.05,1.05,0,0,1,172,96.7c-3,3.31-9.76,3.89-15,1.66S149.65,91.82,150.51,87.59Z"/><rect class="cls-1" x="121.59" y="76.73" width="81.06" height="76.73"/><path class="cls-3" d="M52,128.73c1,2.25,2,4.42,3.09,6.62a36.65,36.65,0,0,0,2,3.82h0a1.07,1.07,0,0,1-.85,1.61c-4.48.25-9.71-4-11.94-9.26s-.71-9.8,2.86-12.24a1.07,1.07,0,0,1,1.61.57c.28.92.58,1.86.85,2.69C50.4,124.62,51.12,126.69,52,128.73Z"/><path class="cls-3" d="M63.09,123.55c2.23,5.26,1.65,12-1.66,15a1.06,1.06,0,0,1-1.74-.49.5.5,0,0,0,0-.12,35.36,35.36,0,0,0-1.34-4.12c-.84-2.28-1.66-4.56-2.61-6.81-.87-2-1.86-4-2.82-6-.39-.74-.84-1.58-1.29-2.39a1.06,1.06,0,0,1,.71-1.55C56.55,116.23,60.86,118.29,63.09,123.55Z"/><path class="cls-3" d="M54,152.28c-2.25.95-4.42,2-6.62,3.08a34,34,0,0,0-3.82,2h0a1.06,1.06,0,0,1-1.61-.85c-.26-4.47,4-9.71,9.25-11.93s9.81-.71,12.24,2.85a1.06,1.06,0,0,1-.56,1.61l-2.69.86C58.07,150.7,56,151.41,54,152.28Z"/><path class="cls-3" d="M59.14,163.39c-5.26,2.23-12,1.64-15-1.67a1.06,1.06,0,0,1,.5-1.73l.12,0a34.55,34.55,0,0,0,4.11-1.33c2.29-.85,4.57-1.66,6.82-2.62,2-.86,4-1.85,6-2.82.75-.39,1.58-.83,2.4-1.28a1.06,1.06,0,0,1,1.55.71C66.46,156.84,64.4,161.15,59.14,163.39Z"/><path class="cls-3" d="M81.09,154.63c2.25-.95,4.42-2,6.61-3.08a34,34,0,0,0,3.82-2h0a1.06,1.06,0,0,1,1.6.85c.26,4.48-4,9.71-9.25,11.94s-9.8.71-12.24-2.86a1.06,1.06,0,0,1,.57-1.61c.92-.28,1.86-.58,2.69-.86C77,156.21,79.05,155.5,81.09,154.63Z"/><path class="cls-3" d="M75.91,143.53c5.25-2.23,12-1.65,15,1.66a1.05,1.05,0,0,1-.49,1.73l-.13,0a34,34,0,0,0-4.11,1.34c-2.29.84-4.57,1.66-6.81,2.61-2,.86-4,1.86-6,2.82L71,155a1.06,1.06,0,0,1-1.54-.72C68.59,150.07,70.64,145.76,75.91,143.53Z"/><path class="cls-3" d="M74.9,123.27l-2.69-.86a1.06,1.06,0,0,1-.57-1.6c2.44-3.57,7-5.1,12.24-2.86s9.51,7.46,9.25,11.93a1.06,1.06,0,0,1-1.6.85h0a34,34,0,0,0-3.82-2c-2.19-1-4.36-2.13-6.61-3.08C79.05,124.75,77,124,74.9,123.27Z"/><path class="cls-3" d="M69.45,126a1.05,1.05,0,0,1,1.54-.71l2.4,1.29c2,1,4,1.95,6,2.81,2.24,1,4.52,1.77,6.81,2.62a35.77,35.77,0,0,0,4.11,1.33l.13,0a1.06,1.06,0,0,1,.49,1.74c-3,3.3-9.77,3.89-15,1.66S68.59,130.18,69.45,126Z"/><path class="cls-3" d="M106.7,128.73c1,2.25,2,4.42,3.08,6.62a36.72,36.72,0,0,0,2,3.82h0a1.06,1.06,0,0,1-.84,1.61c-4.48.25-9.71-4-11.94-9.26s-.71-9.8,2.86-12.24a1.06,1.06,0,0,1,1.6.57c.29.92.59,1.86.86,2.69C105.12,124.62,105.84,126.69,106.7,128.73Z"/><path class="cls-3" d="M117.81,123.55c2.23,5.26,1.65,12-1.66,15a1.06,1.06,0,0,1-1.74-.49c0-.06,0-.1,0-.12a35.36,35.36,0,0,0-1.34-4.12c-.85-2.28-1.66-4.56-2.61-6.81-.87-2-1.86-4-2.82-6-.39-.74-.84-1.58-1.29-2.39a1.06,1.06,0,0,1,.71-1.55C111.26,116.23,115.58,118.29,117.81,123.55Z"/><path class="cls-3" d="M108.67,152.28c-2.24.95-4.41,2-6.61,3.08a34,34,0,0,0-3.82,2h0a1.06,1.06,0,0,1-1.6-.85c-.26-4.47,4-9.71,9.25-11.93s9.8-.71,12.24,2.85a1.06,1.06,0,0,1-.56,1.61l-2.69.86C112.79,150.7,110.72,151.41,108.67,152.28Z"/><path class="cls-3" d="M113.86,163.39c-5.26,2.23-12,1.64-15-1.67a1.05,1.05,0,0,1,.49-1.73l.13,0a35.15,35.15,0,0,0,4.11-1.33c2.29-.85,4.57-1.66,6.82-2.62,2-.86,4-1.85,6-2.82.74-.39,1.58-.83,2.4-1.28a1.05,1.05,0,0,1,1.54.71C121.18,156.84,119.12,161.15,113.86,163.39Z"/><rect class="cls-1" x="40.53" y="115.09" width="81.06" height="76.73"/><path class="cls-3" d="M2,139.82c-.95-2.25-2-4.42-3.08-6.62a34,34,0,0,0-2-3.82h0a1.07,1.07,0,0,1,.85-1.61c4.47-.25,9.71,4,11.93,9.26s.71,9.8-2.86,12.24a1.06,1.06,0,0,1-1.6-.57c-.29-.92-.59-1.86-.86-2.69C3.58,143.93,2.87,141.86,2,139.82Z"/><path class="cls-3" d="M-9.11,145c-2.23-5.26-1.64-12,1.66-15a1.06,1.06,0,0,1,1.74.49l0,.12a35.3,35.3,0,0,0,1.33,4.12c.85,2.28,1.66,4.56,2.62,6.81.86,2,1.85,4,2.81,6,.4.75.84,1.58,1.29,2.4a1.06,1.06,0,0,1-.71,1.55C-2.56,152.32-6.87,150.26-9.11,145Z"/><path class="cls-3" d="M0,116.27c2.25-1,4.42-2,6.61-3.08a35.74,35.74,0,0,0,3.82-2h0a1.05,1.05,0,0,1,1.6.84c.26,4.48-4,9.72-9.25,11.94s-9.8.71-12.24-2.86a1.06,1.06,0,0,1,.56-1.6l2.7-.86C-4.09,117.85-2,117.14,0,116.27Z"/><path class="cls-3" d="M-5.16,105.16c5.26-2.23,12-1.65,15,1.66a1.06,1.06,0,0,1-.49,1.74l-.13,0a35.83,35.83,0,0,0-4.11,1.34c-2.29.85-4.57,1.66-6.81,2.61-2.05.87-4,1.86-6,2.82l-2.4,1.29a1.05,1.05,0,0,1-1.54-.71C-12.48,111.71-10.42,107.39-5.16,105.16Z"/><path class="cls-3" d="M-6.16,84.91c-.83-.28-1.77-.58-2.7-.86a1.07,1.07,0,0,1-.56-1.61c2.44-3.57,7-5.09,12.24-2.86S12.33,87,12.07,91.52a1.06,1.06,0,0,1-1.6.85h0a35.67,35.67,0,0,0-3.82-2C4.45,89.28,2.28,88.21,0,87.25-2,86.39-4.09,85.67-6.16,84.91Z"/><path class="cls-3" d="M-11.61,87.59a1.06,1.06,0,0,1,1.54-.72l2.4,1.29c2,1,4,2,6,2.82,2.24,1,4.52,1.77,6.81,2.61a35.83,35.83,0,0,0,4.11,1.34l.13,0a1.05,1.05,0,0,1,.49,1.73c-3,3.31-9.77,3.89-15,1.66S-12.48,91.82-11.61,87.59Z"/><path class="cls-3" d="M25.64,90.37c.95,2.24,2,4.41,3.08,6.61a35.74,35.74,0,0,0,2,3.82h0a1.06,1.06,0,0,1-.84,1.61c-4.48.26-9.72-4-11.94-9.25s-.71-9.8,2.86-12.24a1.05,1.05,0,0,1,1.6.56c.29.92.59,1.86.86,2.69C24.06,86.25,24.77,88.32,25.64,90.37Z"/><path class="cls-3" d="M36.75,85.18c2.23,5.26,1.65,12-1.66,15a1.07,1.07,0,0,1-1.74-.49.53.53,0,0,1,0-.13A35.2,35.2,0,0,0,32,95.48c-.85-2.29-1.66-4.57-2.61-6.82-.87-2-1.86-4-2.82-6-.39-.74-.84-1.58-1.29-2.4A1.05,1.05,0,0,1,26,78.73C30.2,77.86,34.52,79.92,36.75,85.18Z"/><path class="cls-3" d="M27.61,113.91c-2.24,1-4.41,2-6.61,3.09a35.67,35.67,0,0,0-3.82,2h0a1.06,1.06,0,0,1-1.6-.85c-.26-4.48,4-9.71,9.25-11.94s9.8-.71,12.24,2.86a1.06,1.06,0,0,1-.56,1.61c-.93.28-1.87.58-2.69.86C31.73,112.33,29.66,113.05,27.61,113.91Z"/><path class="cls-3" d="M32.8,125c-5.26,2.23-12,1.65-15-1.66a1.06,1.06,0,0,1,.49-1.74l.13,0a35.83,35.83,0,0,0,4.11-1.34c2.29-.84,4.57-1.66,6.81-2.61,2.05-.87,4-1.86,6-2.82l2.4-1.29a1.06,1.06,0,0,1,1.54.72C40.12,118.48,38.06,122.79,32.8,125Z"/><path class="cls-3" d="M33.81,145.28l2.69.86a1.05,1.05,0,0,1,.56,1.6c-2.44,3.57-7,5.1-12.24,2.86s-9.51-7.46-9.25-11.94a1.05,1.05,0,0,1,1.6-.84h0a35.74,35.74,0,0,0,3.82,2c2.2,1.05,4.37,2.13,6.61,3.08C29.66,143.8,31.73,144.51,33.81,145.28Z"/><path class="cls-3" d="M39.25,142.6a1.06,1.06,0,0,1-1.54.71L35.31,142c-2-1-4-2-6-2.82-2.24-.95-4.52-1.76-6.81-2.61a35.83,35.83,0,0,0-4.11-1.34l-.13,0a1.06,1.06,0,0,1-.49-1.74c3-3.31,9.77-3.89,15-1.66S40.12,138.37,39.25,142.6Z"/><rect class="cls-1" x="-40.53" y="76.73" width="81.06" height="76.73"/><path class="cls-3" d="M133,13.64c1,2.24,2,4.41,3.09,6.61a35.67,35.67,0,0,0,2,3.82h0a1.06,1.06,0,0,1-.85,1.6c-4.48.26-9.71-4-11.94-9.25s-.71-9.8,2.86-12.24a1.06,1.06,0,0,1,1.61.56c.28.93.58,1.87.86,2.69C131.46,9.52,132.18,11.59,133,13.64Z"/><path class="cls-3" d="M144.15,8.45c2.23,5.26,1.65,12-1.66,15a1.06,1.06,0,0,1-1.74-.49.86.86,0,0,0,0-.13,35.83,35.83,0,0,0-1.34-4.11c-.84-2.29-1.66-4.57-2.61-6.81-.87-2-1.86-4-2.82-6-.39-.74-.84-1.58-1.29-2.4A1.06,1.06,0,0,1,133.38,2C137.61,1.13,141.92,3.19,144.15,8.45Z"/><path class="cls-3" d="M135,37.19c-2.25,1-4.42,2-6.62,3.08a34,34,0,0,0-3.82,2h0a1.07,1.07,0,0,1-1.61-.85c-.26-4.48,4-9.71,9.25-11.94s9.81-.71,12.25,2.86A1.06,1.06,0,0,1,143.9,34c-.92.28-1.86.58-2.69.86C139.13,35.6,137.06,36.32,135,37.19Z"/><path class="cls-3" d="M140.2,48.29c-5.26,2.23-12,1.65-15-1.66a1.06,1.06,0,0,1,.5-1.73l.12,0a34.6,34.6,0,0,0,4.11-1.34c2.29-.84,4.57-1.66,6.82-2.61,2-.87,4-1.86,6-2.82.75-.39,1.58-.84,2.4-1.29a1.07,1.07,0,0,1,1.55.72C147.52,41.75,145.46,46.06,140.2,48.29Z"/><path class="cls-3" d="M141.21,68.55l2.69.86a1.06,1.06,0,0,1,.57,1.6c-2.44,3.57-7,5.1-12.25,2.86s-9.51-7.46-9.25-11.93a1.06,1.06,0,0,1,1.61-.85h0a35.74,35.74,0,0,0,3.82,2c2.2,1.05,4.37,2.13,6.62,3.08C137.06,67.07,139.13,67.78,141.21,68.55Z"/><path class="cls-3" d="M146.66,65.87a1.06,1.06,0,0,1-1.55.71l-2.4-1.29c-2-1-4-2-6-2.81-2.25-1-4.53-1.77-6.82-2.62a36.52,36.52,0,0,0-4.11-1.34l-.12,0a1.06,1.06,0,0,1-.5-1.74c3-3.3,9.77-3.89,15-1.66S147.52,61.64,146.66,65.87Z"/><path class="cls-3" d="M164.12,63.09c-1-2.25-2-4.42-3.08-6.62a34.91,34.91,0,0,0-2-3.82h0a1.07,1.07,0,0,1,.85-1.61c4.47-.25,9.71,4,11.94,9.26s.71,9.8-2.86,12.24a1.06,1.06,0,0,1-1.61-.57c-.28-.92-.59-1.86-.86-2.69C165.7,67.2,165,65.13,164.12,63.09Z"/><path class="cls-3" d="M153,68.27c-2.23-5.26-1.65-12,1.66-15a1.05,1.05,0,0,1,1.73.49l0,.12A35.3,35.3,0,0,0,157.78,58c.85,2.28,1.66,4.56,2.62,6.81.86,2,1.86,4,2.82,6,.39.74.84,1.58,1.28,2.39a1.05,1.05,0,0,1-.71,1.55C159.56,75.59,155.25,73.53,153,68.27Z"/><path class="cls-3" d="M162.15,39.54c2.25-.95,4.42-2,6.62-3.08a34.91,34.91,0,0,0,3.82-2h0a1.07,1.07,0,0,1,1.61.85c.25,4.47-4,9.71-9.26,11.93s-9.8.71-12.24-2.86a1.06,1.06,0,0,1,.57-1.6l2.69-.86C158,41.12,160.11,40.41,162.15,39.54Z"/><path class="cls-3" d="M157,28.43c5.26-2.23,12-1.64,15,1.66a1.06,1.06,0,0,1-.49,1.74l-.12,0a35.3,35.3,0,0,0-4.12,1.33c-2.28.85-4.56,1.66-6.81,2.62-2,.86-4,1.85-6,2.81-.74.4-1.58.84-2.39,1.29a1.06,1.06,0,0,1-1.55-.71C149.65,35,151.71,30.67,157,28.43Z"/><path class="cls-3" d="M156,8.18c-.83-.28-1.77-.58-2.69-.86a1.06,1.06,0,0,1-.57-1.61c2.44-3.57,7-5.09,12.24-2.86s9.51,7.46,9.26,11.94a1.07,1.07,0,0,1-1.61.85h0a34.91,34.91,0,0,0-3.82-2c-2.2-1.06-4.37-2.13-6.62-3.08C160.11,9.66,158,9,156,8.18Z"/><path class="cls-3" d="M150.51,10.86a1.06,1.06,0,0,1,1.55-.72c.81.45,1.65.9,2.39,1.29,2,1,4,2,6,2.82,2.25.95,4.53,1.77,6.81,2.61a33.56,33.56,0,0,0,4.12,1.34l.12,0A1.05,1.05,0,0,1,172,20c-3,3.31-9.76,3.89-15,1.66S149.65,15.09,150.51,10.86Z"/><rect class="cls-1" x="121.59" width="81.06" height="76.73"/><path class="cls-3" d="M52,52c1,2.25,2,4.42,3.09,6.62a35.67,35.67,0,0,0,2,3.82h0a1.07,1.07,0,0,1-.85,1.61c-4.48.25-9.71-4-11.94-9.26S43.6,45,47.17,42.55a1.07,1.07,0,0,1,1.61.57c.28.92.58,1.86.85,2.69C50.4,47.89,51.12,50,52,52Z"/><path class="cls-3" d="M63.09,46.82c2.23,5.26,1.65,12-1.66,15a1.06,1.06,0,0,1-1.74-.49.5.5,0,0,0,0-.12,35.36,35.36,0,0,0-1.34-4.12c-.84-2.28-1.66-4.56-2.61-6.81-.87-2-1.86-4-2.82-6-.39-.75-.84-1.58-1.29-2.4a1.06,1.06,0,0,1,.71-1.55C56.55,39.5,60.86,41.56,63.09,46.82Z"/><path class="cls-3" d="M54,75.55c-2.25,1-4.42,2-6.62,3.08a35.74,35.74,0,0,0-3.82,2h0a1.06,1.06,0,0,1-1.61-.84c-.26-4.48,4-9.72,9.25-11.94S61,67.17,63.4,70.74a1,1,0,0,1-.56,1.6l-2.69.86C58.07,74,56,74.68,54,75.55Z"/><path class="cls-3" d="M59.14,86.66c-5.26,2.23-12,1.64-15-1.66a1.07,1.07,0,0,1,.5-1.74l.12,0a34.6,34.6,0,0,0,4.11-1.34c2.29-.85,4.57-1.66,6.82-2.61,2-.87,4-1.86,6-2.82l2.4-1.29a1.06,1.06,0,0,1,1.55.71C66.46,80.11,64.4,84.43,59.14,86.66Z"/><path class="cls-3" d="M60.15,106.91c.83.28,1.77.58,2.69.86a1.06,1.06,0,0,1,.56,1.61c-2.43,3.57-7,5.09-12.24,2.86s-9.51-7.46-9.25-11.94a1.06,1.06,0,0,1,1.61-.85h0a35.67,35.67,0,0,0,3.82,2c2.2,1.06,4.37,2.13,6.62,3.08C56,105.43,58.07,106.15,60.15,106.91Z"/><path class="cls-3" d="M65.6,104.23a1.07,1.07,0,0,1-1.55.72c-.82-.45-1.65-.9-2.4-1.29-2-1-3.95-2-6-2.82-2.25-1-4.53-1.77-6.82-2.61a34.6,34.6,0,0,0-4.11-1.34l-.12,0a1.06,1.06,0,0,1-.5-1.73c3-3.31,9.77-3.89,15-1.66S66.46,100,65.6,104.23Z"/><path class="cls-3" d="M83.06,101.45c-1-2.24-2-4.41-3.08-6.61A34,34,0,0,0,78,91h0a1.06,1.06,0,0,1,.85-1.6c4.47-.26,9.71,4,11.94,9.25s.71,9.8-2.86,12.24a1.06,1.06,0,0,1-1.61-.56c-.29-.92-.59-1.86-.86-2.69C84.64,105.57,83.93,103.5,83.06,101.45Z"/><path class="cls-3" d="M72,106.64c-2.23-5.26-1.64-12,1.67-15a1.05,1.05,0,0,1,1.73.49c0,.06,0,.11,0,.13a35.15,35.15,0,0,0,1.33,4.11c.85,2.29,1.66,4.57,2.62,6.82.86,2,1.86,4,2.82,6,.39.74.83,1.58,1.28,2.4a1.05,1.05,0,0,1-.71,1.54C78.5,114,74.19,111.9,72,106.64Z"/><path class="cls-3" d="M81.09,77.91c2.25-1,4.42-2,6.61-3.09a35.67,35.67,0,0,0,3.82-2h0a1.06,1.06,0,0,1,1.6.85c.26,4.48-4,9.71-9.25,11.94s-9.8.71-12.24-2.86a1.06,1.06,0,0,1,.57-1.61c.92-.28,1.86-.58,2.69-.86C77,79.49,79.05,78.77,81.09,77.91Z"/><path class="cls-3" d="M75.91,66.8c5.25-2.23,12-1.65,15,1.66a1.05,1.05,0,0,1-.49,1.73l-.13,0a35.83,35.83,0,0,0-4.11,1.34c-2.29.84-4.57,1.66-6.81,2.61-2,.87-4,1.86-6,2.82L71,78.29a1.06,1.06,0,0,1-1.54-.72C68.59,73.34,70.64,69,75.91,66.8Z"/><path class="cls-3" d="M74.9,46.54l-2.69-.86a1.06,1.06,0,0,1-.57-1.6c2.44-3.57,7-5.1,12.24-2.86s9.51,7.46,9.25,11.94a1.05,1.05,0,0,1-1.6.84h0a35.74,35.74,0,0,0-3.82-2c-2.19-1-4.36-2.13-6.61-3.08C79.05,48,77,47.31,74.9,46.54Z"/><path class="cls-3" d="M69.45,49.22A1.05,1.05,0,0,1,71,48.51l2.4,1.29c2,1,4,2,6,2.82,2.24,1,4.52,1.76,6.81,2.61a35.83,35.83,0,0,0,4.11,1.34l.13,0a1.06,1.06,0,0,1,.49,1.74c-3,3.31-9.77,3.89-15,1.66S68.59,53.45,69.45,49.22Z"/><path class="cls-3" d="M106.7,52c1,2.25,2,4.42,3.08,6.62a35.74,35.74,0,0,0,2,3.82h0a1.06,1.06,0,0,1-.84,1.61c-4.48.25-9.71-4-11.94-9.26s-.71-9.8,2.86-12.24a1.06,1.06,0,0,1,1.6.57c.29.92.59,1.86.86,2.69C105.12,47.89,105.84,50,106.7,52Z"/><path class="cls-3" d="M117.81,46.82c2.23,5.26,1.65,12-1.66,15a1.06,1.06,0,0,1-1.74-.49c0-.06,0-.1,0-.12A35.36,35.36,0,0,0,113,57.11c-.85-2.28-1.66-4.56-2.61-6.81-.87-2-1.86-4-2.82-6-.39-.75-.84-1.58-1.29-2.4a1.06,1.06,0,0,1,.71-1.55C111.26,39.5,115.58,41.56,117.81,46.82Z"/><path class="cls-3" d="M108.67,75.55c-2.24,1-4.41,2-6.61,3.08a35.74,35.74,0,0,0-3.82,2h0a1.05,1.05,0,0,1-1.6-.84c-.26-4.48,4-9.72,9.25-11.94s9.8-.71,12.24,2.86a1.05,1.05,0,0,1-.56,1.6l-2.69.86C112.79,74,110.72,74.68,108.67,75.55Z"/><path class="cls-3" d="M113.86,86.66c-5.26,2.23-12,1.64-15-1.66a1.06,1.06,0,0,1,.49-1.74l.13,0a35.2,35.2,0,0,0,4.11-1.34c2.29-.85,4.57-1.66,6.82-2.61,2-.87,4-1.86,6-2.82l2.4-1.29a1.05,1.05,0,0,1,1.54.71C121.18,80.11,119.12,84.43,113.86,86.66Z"/><path class="cls-3" d="M114.87,106.91c.83.28,1.77.58,2.69.86a1.06,1.06,0,0,1,.56,1.61c-2.44,3.57-7,5.09-12.24,2.86s-9.51-7.46-9.25-11.94a1.06,1.06,0,0,1,1.6-.85h0a35.67,35.67,0,0,0,3.82,2c2.2,1.06,4.37,2.13,6.61,3.08C110.72,105.43,112.79,106.15,114.87,106.91Z"/><path class="cls-3" d="M120.31,104.23a1.06,1.06,0,0,1-1.54.72l-2.4-1.29c-2-1-4-2-6-2.82-2.25-1-4.53-1.77-6.82-2.61a35.2,35.2,0,0,0-4.11-1.34l-.13,0a1.05,1.05,0,0,1-.49-1.73c3-3.31,9.77-3.89,15-1.66S121.18,100,120.31,104.23Z"/><rect class="cls-1" x="40.53" y="38.36" width="81.06" height="76.73"/><path class="cls-3" d="M2,63.09c-.95-2.25-2-4.42-3.08-6.62a34.91,34.91,0,0,0-2-3.82h0A1.07,1.07,0,0,1-2.26,51c4.47-.25,9.71,4,11.93,9.26s.71,9.8-2.86,12.24A1.06,1.06,0,0,1,5.21,72c-.29-.92-.59-1.86-.86-2.69C3.58,67.2,2.87,65.13,2,63.09Z"/><path class="cls-3" d="M-9.11,68.27c-2.23-5.26-1.64-12,1.66-15a1.06,1.06,0,0,1,1.74.49c0,.06,0,.1,0,.12A35.3,35.3,0,0,0-4.34,58c.85,2.28,1.66,4.56,2.62,6.81.86,2,1.85,4,2.81,6,.4.74.84,1.58,1.29,2.39a1.06,1.06,0,0,1-.71,1.55C-2.56,75.59-6.87,73.53-9.11,68.27Z"/><path class="cls-3" d="M0,39.54c2.25-.95,4.42-2,6.61-3.08a34,34,0,0,0,3.82-2h0a1.06,1.06,0,0,1,1.6.85c.26,4.47-4,9.71-9.25,11.93s-9.8.71-12.24-2.86a1.06,1.06,0,0,1,.56-1.6l2.7-.86C-4.09,41.12-2,40.41,0,39.54Z"/><path class="cls-3" d="M-5.16,28.43c5.26-2.23,12-1.64,15,1.66a1.06,1.06,0,0,1-.49,1.74l-.13,0A35.77,35.77,0,0,0,5.14,33.2c-2.29.85-4.57,1.66-6.81,2.62-2.05.86-4,1.85-6,2.81l-2.4,1.29a1.05,1.05,0,0,1-1.54-.71C-12.48,35-10.42,30.67-5.16,28.43Z"/><path class="cls-3" d="M-6.16,8.18C-7,7.9-7.93,7.6-8.86,7.32a1.07,1.07,0,0,1-.56-1.61C-7,2.14-2.44.62,2.82,2.85s9.51,7.46,9.25,11.94a1.06,1.06,0,0,1-1.6.85h0a34,34,0,0,0-3.82-2C4.45,12.55,2.28,11.48,0,10.53-2,9.66-4.09,9-6.16,8.18Z"/><path class="cls-3" d="M-11.61,10.86a1.06,1.06,0,0,1,1.54-.72l2.4,1.29c2,1,4,2,6,2.82C.57,15.2,2.85,16,5.14,16.86A34,34,0,0,0,9.25,18.2l.13,0A1.05,1.05,0,0,1,9.87,20c-3,3.31-9.77,3.89-15,1.66S-12.48,15.09-11.61,10.86Z"/><path class="cls-3" d="M25.64,13.64c.95,2.24,2,4.41,3.08,6.61a35.74,35.74,0,0,0,2,3.82h0a1.05,1.05,0,0,1-.84,1.6c-4.48.26-9.72-4-11.94-9.25s-.71-9.8,2.86-12.24a1.05,1.05,0,0,1,1.6.56c.29.93.59,1.87.86,2.69C24.06,9.52,24.77,11.59,25.64,13.64Z"/><path class="cls-3" d="M36.75,8.45c2.23,5.26,1.65,12-1.66,15A1.06,1.06,0,0,1,33.35,23a.45.45,0,0,1,0-.13A35.83,35.83,0,0,0,32,18.75c-.85-2.29-1.66-4.57-2.61-6.81-.87-2-1.86-4-2.82-6-.39-.74-.84-1.58-1.29-2.4A1.05,1.05,0,0,1,26,2C30.2,1.13,34.52,3.19,36.75,8.45Z"/><path class="cls-3" d="M27.61,37.19c-2.24,1-4.41,2-6.61,3.08a34,34,0,0,0-3.82,2h0a1.06,1.06,0,0,1-1.6-.85c-.26-4.48,4-9.71,9.25-11.94s9.8-.71,12.24,2.86A1.06,1.06,0,0,1,36.5,34c-.93.28-1.87.58-2.69.86C31.73,35.6,29.66,36.32,27.61,37.19Z"/><path class="cls-3" d="M32.8,48.29c-5.26,2.23-12,1.65-15-1.66a1.05,1.05,0,0,1,.49-1.73l.13,0a35.83,35.83,0,0,0,4.11-1.34c2.29-.84,4.57-1.66,6.81-2.61,2.05-.87,4-1.86,6-2.82l2.4-1.29a1.06,1.06,0,0,1,1.54.72C40.12,41.75,38.06,46.06,32.8,48.29Z"/><path class="cls-3" d="M33.81,68.55l2.69.86a1.05,1.05,0,0,1,.56,1.6c-2.44,3.57-7,5.1-12.24,2.86s-9.51-7.46-9.25-11.93a1.05,1.05,0,0,1,1.6-.85h0a35.74,35.74,0,0,0,3.82,2c2.2,1.05,4.37,2.13,6.61,3.08C29.66,67.07,31.73,67.78,33.81,68.55Z"/><path class="cls-3" d="M39.25,65.87a1.05,1.05,0,0,1-1.54.71l-2.4-1.29c-2-1-4-2-6-2.81-2.24-1-4.52-1.77-6.81-2.62a37.89,37.89,0,0,0-4.11-1.34l-.13,0a1.06,1.06,0,0,1-.49-1.74c3-3.3,9.77-3.89,15-1.66S40.12,61.64,39.25,65.87Z"/><rect class="cls-1" x="-40.53" width="81.06" height="76.73"/><path class="cls-3" d="M54-1.18c-2.25,1-4.42,2-6.62,3.08a35.74,35.74,0,0,0-3.82,2h0a1.06,1.06,0,0,1-1.61-.84c-.26-4.48,4-9.71,9.25-11.94S61-9.56,63.4-6a1,1,0,0,1-.56,1.6l-2.69.86C58.07-2.76,56-2,54-1.18Z"/><path class="cls-3" d="M59.14,9.93c-5.26,2.23-12,1.65-15-1.66a1.07,1.07,0,0,1,.5-1.74l.12,0a34.6,34.6,0,0,0,4.11-1.34c2.29-.85,4.57-1.66,6.82-2.61,2-.87,4-1.86,6-2.82.75-.39,1.58-.84,2.4-1.29a1.07,1.07,0,0,1,1.55.71C66.46,3.38,64.4,7.7,59.14,9.93Z"/><path class="cls-3" d="M60.15,30.19c.83.27,1.77.57,2.69.85a1.06,1.06,0,0,1,.56,1.61c-2.43,3.57-7,5.09-12.24,2.86s-9.51-7.46-9.25-11.94a1.06,1.06,0,0,1,1.61-.85h0a35.67,35.67,0,0,0,3.82,2c2.2,1.06,4.37,2.13,6.62,3.09C56,28.7,58.07,29.42,60.15,30.19Z"/><path class="cls-3" d="M65.6,27.51a1.07,1.07,0,0,1-1.55.71c-.82-.45-1.65-.9-2.4-1.29-2-1-3.95-1.95-6-2.82-2.25-.95-4.53-1.77-6.82-2.61a34.6,34.6,0,0,0-4.11-1.34l-.12,0a1.07,1.07,0,0,1-.5-1.74c3-3.31,9.77-3.89,15-1.66S66.46,23.27,65.6,27.51Z"/><path class="cls-3" d="M83.06,24.73c-1-2.25-2-4.42-3.08-6.62a34,34,0,0,0-2-3.82h0a1.06,1.06,0,0,1,.85-1.61c4.47-.26,9.71,4,11.94,9.25s.71,9.8-2.86,12.24a1.06,1.06,0,0,1-1.61-.56c-.29-.92-.59-1.86-.86-2.69C84.64,28.84,83.93,26.77,83.06,24.73Z"/><path class="cls-3" d="M72,29.91c-2.23-5.26-1.64-12,1.67-15a1.06,1.06,0,0,1,1.73.5s0,.1,0,.12a35.15,35.15,0,0,0,1.33,4.11c.85,2.29,1.66,4.57,2.62,6.82.86,2,1.86,4,2.82,6,.39.75.83,1.58,1.28,2.4a1.06,1.06,0,0,1-.71,1.55C78.5,37.23,74.19,35.17,72,29.91Z"/><path class="cls-3" d="M81.09,1.18c2.25-1,4.42-2,6.61-3.09a35.67,35.67,0,0,0,3.82-2h0a1,1,0,0,1,1.6.84c.26,4.48-4,9.71-9.25,11.94S74.08,9.56,71.64,6a1.05,1.05,0,0,1,.57-1.6l2.69-.86C77,2.76,79.05,2,81.09,1.18Z"/><path class="cls-3" d="M75.91-9.93c5.25-2.23,12-1.65,15,1.66a1.06,1.06,0,0,1-.49,1.74l-.13,0A35.83,35.83,0,0,0,86.2-5.16c-2.29.84-4.57,1.66-6.81,2.61-2,.87-4,1.86-6,2.82L71,1.56A1.06,1.06,0,0,1,69.45.85C68.59-3.39,70.64-7.7,75.91-9.93Z"/><path class="cls-3" d="M108.67-1.18c-2.24,1-4.41,2-6.61,3.08a35.74,35.74,0,0,0-3.82,2h0a1.05,1.05,0,0,1-1.6-.84c-.26-4.48,4-9.71,9.25-11.94s9.8-.71,12.24,2.86a1.05,1.05,0,0,1-.56,1.6l-2.69.86C112.79-2.76,110.72-2,108.67-1.18Z"/><path class="cls-3" d="M113.86,9.93c-5.26,2.23-12,1.65-15-1.66a1.06,1.06,0,0,1,.49-1.74l.13,0a35.2,35.2,0,0,0,4.11-1.34c2.29-.85,4.57-1.66,6.82-2.61,2-.87,4-1.86,6-2.82l2.4-1.29a1.06,1.06,0,0,1,1.54.71C121.18,3.38,119.12,7.7,113.86,9.93Z"/><path class="cls-3" d="M114.87,30.19c.83.27,1.77.57,2.69.85a1.06,1.06,0,0,1,.56,1.61c-2.44,3.57-7,5.09-12.24,2.86s-9.51-7.46-9.25-11.94a1.06,1.06,0,0,1,1.6-.85h0a35.67,35.67,0,0,0,3.82,2c2.2,1.06,4.37,2.13,6.61,3.09C110.72,28.7,112.79,29.42,114.87,30.19Z"/><path class="cls-3" d="M120.31,27.51a1.06,1.06,0,0,1-1.54.71l-2.4-1.29c-2-1-4-1.95-6-2.82-2.25-.95-4.53-1.77-6.82-2.61a35.2,35.2,0,0,0-4.11-1.34l-.13,0a1.06,1.06,0,0,1-.49-1.74c3-3.31,9.77-3.89,15-1.66S121.18,23.27,120.31,27.51Z"/><rect class="cls-1" x="40.53" y="-38.36" width="81.06" height="76.73"/></pattern><pattern id="新規パターンスウォッチ_4" data-name="新規パターンスウォッチ 4" width="162.12" height="153.46" patternUnits="userSpaceOnUse" viewBox="0 0 162.12 153.46"><rect class="cls-1" width="162.12" height="153.46"/><path class="cls-4" d="M133,90.37c1,2.24,2,4.41,3.09,6.61a35.67,35.67,0,0,0,2,3.82h0a1.06,1.06,0,0,1-.85,1.61c-4.48.26-9.71-4-11.94-9.25s-.71-9.8,2.86-12.24a1.06,1.06,0,0,1,1.61.56c.28.92.58,1.86.86,2.69C131.46,86.25,132.18,88.32,133,90.37Z"/><path class="cls-4" d="M144.15,85.18c2.23,5.26,1.65,12-1.66,15a1.07,1.07,0,0,1-1.74-.49.63.63,0,0,0,0-.13,35.2,35.2,0,0,0-1.34-4.11c-.84-2.29-1.66-4.57-2.61-6.82-.87-2-1.86-4-2.82-6-.39-.74-.84-1.58-1.29-2.4a1.06,1.06,0,0,1,.72-1.54C137.61,77.86,141.92,79.92,144.15,85.18Z"/><path class="cls-4" d="M135,113.91c-2.25,1-4.42,2-6.62,3.09a35.67,35.67,0,0,0-3.82,2h0a1.07,1.07,0,0,1-1.61-.85c-.26-4.48,4-9.71,9.25-11.94s9.81-.71,12.25,2.86a1.06,1.06,0,0,1-.57,1.61c-.92.28-1.86.58-2.69.86C139.13,112.33,137.06,113.05,135,113.91Z"/><path class="cls-4" d="M140.2,125c-5.26,2.23-12,1.65-15-1.66a1.07,1.07,0,0,1,.5-1.74l.12,0a34.6,34.6,0,0,0,4.11-1.34c2.29-.84,4.57-1.66,6.82-2.61,2-.87,4-1.86,6-2.82.75-.39,1.58-.84,2.4-1.29a1.07,1.07,0,0,1,1.55.72C147.52,118.48,145.46,122.79,140.2,125Z"/><path class="cls-4" d="M141.21,145.28l2.69.86a1.06,1.06,0,0,1,.57,1.6c-2.44,3.57-7,5.1-12.25,2.86s-9.51-7.46-9.25-11.94a1.06,1.06,0,0,1,1.61-.84h0a35.74,35.74,0,0,0,3.82,2c2.2,1.05,4.37,2.13,6.62,3.08C137.06,143.8,139.13,144.51,141.21,145.28Z"/><path class="cls-4" d="M146.66,142.6a1.07,1.07,0,0,1-1.55.71c-.82-.45-1.65-.9-2.4-1.29-2-1-4-2-6-2.82-2.25-.95-4.53-1.76-6.82-2.61a34.6,34.6,0,0,0-4.11-1.34l-.12,0a1.07,1.07,0,0,1-.5-1.74c3-3.31,9.77-3.89,15-1.66S147.52,138.37,146.66,142.6Z"/><path class="cls-4" d="M164.12,139.82c-1-2.25-2-4.42-3.08-6.62a34,34,0,0,0-2-3.82h0a1.07,1.07,0,0,1,.85-1.61c4.47-.25,9.71,4,11.94,9.26s.71,9.8-2.86,12.24a1.06,1.06,0,0,1-1.61-.57c-.28-.92-.59-1.86-.86-2.69C165.7,143.93,165,141.86,164.12,139.82Z"/><path class="cls-4" d="M153,145c-2.23-5.26-1.65-12,1.66-15a1.05,1.05,0,0,1,1.73.49l0,.12a35.3,35.3,0,0,0,1.33,4.12c.85,2.28,1.66,4.56,2.62,6.81.86,2,1.86,4,2.82,6,.39.75.84,1.58,1.28,2.4a1.05,1.05,0,0,1-.71,1.55C159.56,152.32,155.25,150.26,153,145Z"/><path class="cls-4" d="M162.15,116.27c2.25-1,4.42-2,6.62-3.08a36.72,36.72,0,0,0,3.82-2h0a1.06,1.06,0,0,1,1.61.84c.25,4.48-4,9.72-9.26,11.94s-9.8.71-12.24-2.86a1.06,1.06,0,0,1,.57-1.6l2.69-.86C158,117.85,160.11,117.14,162.15,116.27Z"/><path class="cls-4" d="M157,105.16c5.26-2.23,12-1.65,15,1.66a1.06,1.06,0,0,1-.49,1.74l-.12,0a35.36,35.36,0,0,0-4.12,1.34c-2.28.85-4.56,1.66-6.81,2.61-2,.87-4,1.86-6,2.82-.74.39-1.58.84-2.39,1.29a1.06,1.06,0,0,1-1.55-.71C149.65,111.71,151.71,107.39,157,105.16Z"/><path class="cls-4" d="M156,84.91c-.83-.28-1.77-.58-2.69-.86a1.06,1.06,0,0,1-.57-1.61c2.44-3.57,7-5.09,12.24-2.86s9.51,7.46,9.26,11.94a1.07,1.07,0,0,1-1.61.85h0a36.65,36.65,0,0,0-3.82-2c-2.2-1.06-4.37-2.13-6.62-3.09C160.11,86.39,158,85.67,156,84.91Z"/><path class="cls-4" d="M150.51,87.59a1.06,1.06,0,0,1,1.55-.72c.81.45,1.65.9,2.39,1.29,2,1,4,2,6,2.82,2.25,1,4.53,1.77,6.81,2.61a35.36,35.36,0,0,0,4.12,1.34l.12,0A1.05,1.05,0,0,1,172,96.7c-3,3.31-9.76,3.89-15,1.66S149.65,91.82,150.51,87.59Z"/><rect class="cls-1" x="121.59" y="76.73" width="81.06" height="76.73"/><path class="cls-4" d="M52,128.73c1,2.25,2,4.42,3.09,6.62a36.65,36.65,0,0,0,2,3.82h0a1.07,1.07,0,0,1-.85,1.61c-4.48.25-9.71-4-11.94-9.26s-.71-9.8,2.86-12.24a1.07,1.07,0,0,1,1.61.57c.28.92.58,1.86.85,2.69C50.4,124.62,51.12,126.69,52,128.73Z"/><path class="cls-4" d="M63.09,123.55c2.23,5.26,1.65,12-1.66,15a1.06,1.06,0,0,1-1.74-.49.5.5,0,0,0,0-.12,35.36,35.36,0,0,0-1.34-4.12c-.84-2.28-1.66-4.56-2.61-6.81-.87-2-1.86-4-2.82-6-.39-.74-.84-1.58-1.29-2.39a1.06,1.06,0,0,1,.71-1.55C56.55,116.23,60.86,118.29,63.09,123.55Z"/><path class="cls-4" d="M54,152.28c-2.25.95-4.42,2-6.62,3.08a34,34,0,0,0-3.82,2h0a1.06,1.06,0,0,1-1.61-.85c-.26-4.47,4-9.71,9.25-11.93s9.81-.71,12.24,2.85a1.06,1.06,0,0,1-.56,1.61l-2.69.86C58.07,150.7,56,151.41,54,152.28Z"/><path class="cls-4" d="M59.14,163.39c-5.26,2.23-12,1.64-15-1.67a1.06,1.06,0,0,1,.5-1.73l.12,0a34.55,34.55,0,0,0,4.11-1.33c2.29-.85,4.57-1.66,6.82-2.62,2-.86,4-1.85,6-2.82.75-.39,1.58-.83,2.4-1.28a1.06,1.06,0,0,1,1.55.71C66.46,156.84,64.4,161.15,59.14,163.39Z"/><path class="cls-4" d="M81.09,154.63c2.25-.95,4.42-2,6.61-3.08a34,34,0,0,0,3.82-2h0a1.06,1.06,0,0,1,1.6.85c.26,4.48-4,9.71-9.25,11.94s-9.8.71-12.24-2.86a1.06,1.06,0,0,1,.57-1.61c.92-.28,1.86-.58,2.69-.86C77,156.21,79.05,155.5,81.09,154.63Z"/><path class="cls-4" d="M75.91,143.53c5.25-2.23,12-1.65,15,1.66a1.05,1.05,0,0,1-.49,1.73l-.13,0a34,34,0,0,0-4.11,1.34c-2.29.84-4.57,1.66-6.81,2.61-2,.86-4,1.86-6,2.82L71,155a1.06,1.06,0,0,1-1.54-.72C68.59,150.07,70.64,145.76,75.91,143.53Z"/><path class="cls-4" d="M74.9,123.27l-2.69-.86a1.06,1.06,0,0,1-.57-1.6c2.44-3.57,7-5.1,12.24-2.86s9.51,7.46,9.25,11.93a1.06,1.06,0,0,1-1.6.85h0a34,34,0,0,0-3.82-2c-2.19-1-4.36-2.13-6.61-3.08C79.05,124.75,77,124,74.9,123.27Z"/><path class="cls-4" d="M69.45,126a1.05,1.05,0,0,1,1.54-.71l2.4,1.29c2,1,4,1.95,6,2.81,2.24,1,4.52,1.77,6.81,2.62a35.77,35.77,0,0,0,4.11,1.33l.13,0a1.06,1.06,0,0,1,.49,1.74c-3,3.3-9.77,3.89-15,1.66S68.59,130.18,69.45,126Z"/><path class="cls-4" d="M106.7,128.73c1,2.25,2,4.42,3.08,6.62a36.72,36.72,0,0,0,2,3.82h0a1.06,1.06,0,0,1-.84,1.61c-4.48.25-9.71-4-11.94-9.26s-.71-9.8,2.86-12.24a1.06,1.06,0,0,1,1.6.57c.29.92.59,1.86.86,2.69C105.12,124.62,105.84,126.69,106.7,128.73Z"/><path class="cls-4" d="M117.81,123.55c2.23,5.26,1.65,12-1.66,15a1.06,1.06,0,0,1-1.74-.49c0-.06,0-.1,0-.12a35.36,35.36,0,0,0-1.34-4.12c-.85-2.28-1.66-4.56-2.61-6.81-.87-2-1.86-4-2.82-6-.39-.74-.84-1.58-1.29-2.39a1.06,1.06,0,0,1,.71-1.55C111.26,116.23,115.58,118.29,117.81,123.55Z"/><path class="cls-4" d="M108.67,152.28c-2.24.95-4.41,2-6.61,3.08a34,34,0,0,0-3.82,2h0a1.06,1.06,0,0,1-1.6-.85c-.26-4.47,4-9.71,9.25-11.93s9.8-.71,12.24,2.85a1.06,1.06,0,0,1-.56,1.61l-2.69.86C112.79,150.7,110.72,151.41,108.67,152.28Z"/><path class="cls-4" d="M113.86,163.39c-5.26,2.23-12,1.64-15-1.67a1.05,1.05,0,0,1,.49-1.73l.13,0a35.15,35.15,0,0,0,4.11-1.33c2.29-.85,4.57-1.66,6.82-2.62,2-.86,4-1.85,6-2.82.74-.39,1.58-.83,2.4-1.28a1.05,1.05,0,0,1,1.54.71C121.18,156.84,119.12,161.15,113.86,163.39Z"/><rect class="cls-1" x="40.53" y="115.09" width="81.06" height="76.73"/><path class="cls-4" d="M2,139.82c-.95-2.25-2-4.42-3.08-6.62a34,34,0,0,0-2-3.82h0a1.07,1.07,0,0,1,.85-1.61c4.47-.25,9.71,4,11.93,9.26s.71,9.8-2.86,12.24a1.06,1.06,0,0,1-1.6-.57c-.29-.92-.59-1.86-.86-2.69C3.58,143.93,2.87,141.86,2,139.82Z"/><path class="cls-4" d="M-9.11,145c-2.23-5.26-1.64-12,1.66-15a1.06,1.06,0,0,1,1.74.49l0,.12a35.3,35.3,0,0,0,1.33,4.12c.85,2.28,1.66,4.56,2.62,6.81.86,2,1.85,4,2.81,6,.4.75.84,1.58,1.29,2.4a1.06,1.06,0,0,1-.71,1.55C-2.56,152.32-6.87,150.26-9.11,145Z"/><path class="cls-4" d="M0,116.27c2.25-1,4.42-2,6.61-3.08a35.74,35.74,0,0,0,3.82-2h0a1.05,1.05,0,0,1,1.6.84c.26,4.48-4,9.72-9.25,11.94s-9.8.71-12.24-2.86a1.06,1.06,0,0,1,.56-1.6l2.7-.86C-4.09,117.85-2,117.14,0,116.27Z"/><path class="cls-4" d="M-5.16,105.16c5.26-2.23,12-1.65,15,1.66a1.06,1.06,0,0,1-.49,1.74l-.13,0a35.83,35.83,0,0,0-4.11,1.34c-2.29.85-4.57,1.66-6.81,2.61-2.05.87-4,1.86-6,2.82l-2.4,1.29a1.05,1.05,0,0,1-1.54-.71C-12.48,111.71-10.42,107.39-5.16,105.16Z"/><path class="cls-4" d="M-6.16,84.91c-.83-.28-1.77-.58-2.7-.86a1.07,1.07,0,0,1-.56-1.61c2.44-3.57,7-5.09,12.24-2.86S12.33,87,12.07,91.52a1.06,1.06,0,0,1-1.6.85h0a35.67,35.67,0,0,0-3.82-2C4.45,89.28,2.28,88.21,0,87.25-2,86.39-4.09,85.67-6.16,84.91Z"/><path class="cls-4" d="M-11.61,87.59a1.06,1.06,0,0,1,1.54-.72l2.4,1.29c2,1,4,2,6,2.82,2.24,1,4.52,1.77,6.81,2.61a35.83,35.83,0,0,0,4.11,1.34l.13,0a1.05,1.05,0,0,1,.49,1.73c-3,3.31-9.77,3.89-15,1.66S-12.48,91.82-11.61,87.59Z"/><path class="cls-4" d="M25.64,90.37c.95,2.24,2,4.41,3.08,6.61a35.74,35.74,0,0,0,2,3.82h0a1.06,1.06,0,0,1-.84,1.61c-4.48.26-9.72-4-11.94-9.25s-.71-9.8,2.86-12.24a1.05,1.05,0,0,1,1.6.56c.29.92.59,1.86.86,2.69C24.06,86.25,24.77,88.32,25.64,90.37Z"/><path class="cls-4" d="M36.75,85.18c2.23,5.26,1.65,12-1.66,15a1.07,1.07,0,0,1-1.74-.49.53.53,0,0,1,0-.13A35.2,35.2,0,0,0,32,95.48c-.85-2.29-1.66-4.57-2.61-6.82-.87-2-1.86-4-2.82-6-.39-.74-.84-1.58-1.29-2.4A1.05,1.05,0,0,1,26,78.73C30.2,77.86,34.52,79.92,36.75,85.18Z"/><path class="cls-4" d="M27.61,113.91c-2.24,1-4.41,2-6.61,3.09a35.67,35.67,0,0,0-3.82,2h0a1.06,1.06,0,0,1-1.6-.85c-.26-4.48,4-9.71,9.25-11.94s9.8-.71,12.24,2.86a1.06,1.06,0,0,1-.56,1.61c-.93.28-1.87.58-2.69.86C31.73,112.33,29.66,113.05,27.61,113.91Z"/><path class="cls-4" d="M32.8,125c-5.26,2.23-12,1.65-15-1.66a1.06,1.06,0,0,1,.49-1.74l.13,0a35.83,35.83,0,0,0,4.11-1.34c2.29-.84,4.57-1.66,6.81-2.61,2.05-.87,4-1.86,6-2.82l2.4-1.29a1.06,1.06,0,0,1,1.54.72C40.12,118.48,38.06,122.79,32.8,125Z"/><path class="cls-4" d="M33.81,145.28l2.69.86a1.05,1.05,0,0,1,.56,1.6c-2.44,3.57-7,5.1-12.24,2.86s-9.51-7.46-9.25-11.94a1.05,1.05,0,0,1,1.6-.84h0a35.74,35.74,0,0,0,3.82,2c2.2,1.05,4.37,2.13,6.61,3.08C29.66,143.8,31.73,144.51,33.81,145.28Z"/><path class="cls-4" d="M39.25,142.6a1.06,1.06,0,0,1-1.54.71L35.31,142c-2-1-4-2-6-2.82-2.24-.95-4.52-1.76-6.81-2.61a35.83,35.83,0,0,0-4.11-1.34l-.13,0a1.06,1.06,0,0,1-.49-1.74c3-3.31,9.77-3.89,15-1.66S40.12,138.37,39.25,142.6Z"/><rect class="cls-1" x="-40.53" y="76.73" width="81.06" height="76.73"/><path class="cls-4" d="M133,13.64c1,2.24,2,4.41,3.09,6.61a35.67,35.67,0,0,0,2,3.82h0a1.06,1.06,0,0,1-.85,1.6c-4.48.26-9.71-4-11.94-9.25s-.71-9.8,2.86-12.24a1.06,1.06,0,0,1,1.61.56c.28.93.58,1.87.86,2.69C131.46,9.52,132.18,11.59,133,13.64Z"/><path class="cls-4" d="M144.15,8.45c2.23,5.26,1.65,12-1.66,15a1.06,1.06,0,0,1-1.74-.49.86.86,0,0,0,0-.13,35.83,35.83,0,0,0-1.34-4.11c-.84-2.29-1.66-4.57-2.61-6.81-.87-2-1.86-4-2.82-6-.39-.74-.84-1.58-1.29-2.4A1.06,1.06,0,0,1,133.38,2C137.61,1.13,141.92,3.19,144.15,8.45Z"/><path class="cls-4" d="M135,37.19c-2.25,1-4.42,2-6.62,3.08a34,34,0,0,0-3.82,2h0a1.07,1.07,0,0,1-1.61-.85c-.26-4.48,4-9.71,9.25-11.94s9.81-.71,12.25,2.86A1.06,1.06,0,0,1,143.9,34c-.92.28-1.86.58-2.69.86C139.13,35.6,137.06,36.32,135,37.19Z"/><path class="cls-4" d="M140.2,48.29c-5.26,2.23-12,1.65-15-1.66a1.06,1.06,0,0,1,.5-1.73l.12,0a34.6,34.6,0,0,0,4.11-1.34c2.29-.84,4.57-1.66,6.82-2.61,2-.87,4-1.86,6-2.82.75-.39,1.58-.84,2.4-1.29a1.07,1.07,0,0,1,1.55.72C147.52,41.75,145.46,46.06,140.2,48.29Z"/><path class="cls-4" d="M141.21,68.55l2.69.86a1.06,1.06,0,0,1,.57,1.6c-2.44,3.57-7,5.1-12.25,2.86s-9.51-7.46-9.25-11.93a1.06,1.06,0,0,1,1.61-.85h0a35.74,35.74,0,0,0,3.82,2c2.2,1.05,4.37,2.13,6.62,3.08C137.06,67.07,139.13,67.78,141.21,68.55Z"/><path class="cls-4" d="M146.66,65.87a1.06,1.06,0,0,1-1.55.71l-2.4-1.29c-2-1-4-2-6-2.81-2.25-1-4.53-1.77-6.82-2.62a36.52,36.52,0,0,0-4.11-1.34l-.12,0a1.06,1.06,0,0,1-.5-1.74c3-3.3,9.77-3.89,15-1.66S147.52,61.64,146.66,65.87Z"/><path class="cls-4" d="M164.12,63.09c-1-2.25-2-4.42-3.08-6.62a34.91,34.91,0,0,0-2-3.82h0a1.07,1.07,0,0,1,.85-1.61c4.47-.25,9.71,4,11.94,9.26s.71,9.8-2.86,12.24a1.06,1.06,0,0,1-1.61-.57c-.28-.92-.59-1.86-.86-2.69C165.7,67.2,165,65.13,164.12,63.09Z"/><path class="cls-4" d="M153,68.27c-2.23-5.26-1.65-12,1.66-15a1.05,1.05,0,0,1,1.73.49l0,.12A35.3,35.3,0,0,0,157.78,58c.85,2.28,1.66,4.56,2.62,6.81.86,2,1.86,4,2.82,6,.39.74.84,1.58,1.28,2.39a1.05,1.05,0,0,1-.71,1.55C159.56,75.59,155.25,73.53,153,68.27Z"/><path class="cls-4" d="M162.15,39.54c2.25-.95,4.42-2,6.62-3.08a34.91,34.91,0,0,0,3.82-2h0a1.07,1.07,0,0,1,1.61.85c.25,4.47-4,9.71-9.26,11.93s-9.8.71-12.24-2.86a1.06,1.06,0,0,1,.57-1.6l2.69-.86C158,41.12,160.11,40.41,162.15,39.54Z"/><path class="cls-4" d="M157,28.43c5.26-2.23,12-1.64,15,1.66a1.06,1.06,0,0,1-.49,1.74l-.12,0a35.3,35.3,0,0,0-4.12,1.33c-2.28.85-4.56,1.66-6.81,2.62-2,.86-4,1.85-6,2.81-.74.4-1.58.84-2.39,1.29a1.06,1.06,0,0,1-1.55-.71C149.65,35,151.71,30.67,157,28.43Z"/><path class="cls-4" d="M156,8.18c-.83-.28-1.77-.58-2.69-.86a1.06,1.06,0,0,1-.57-1.61c2.44-3.57,7-5.09,12.24-2.86s9.51,7.46,9.26,11.94a1.07,1.07,0,0,1-1.61.85h0a34.91,34.91,0,0,0-3.82-2c-2.2-1.06-4.37-2.13-6.62-3.08C160.11,9.66,158,9,156,8.18Z"/><path class="cls-4" d="M150.51,10.86a1.06,1.06,0,0,1,1.55-.72c.81.45,1.65.9,2.39,1.29,2,1,4,2,6,2.82,2.25.95,4.53,1.77,6.81,2.61a33.56,33.56,0,0,0,4.12,1.34l.12,0A1.05,1.05,0,0,1,172,20c-3,3.31-9.76,3.89-15,1.66S149.65,15.09,150.51,10.86Z"/><rect class="cls-1" x="121.59" width="81.06" height="76.73"/><path class="cls-4" d="M52,52c1,2.25,2,4.42,3.09,6.62a35.67,35.67,0,0,0,2,3.82h0a1.07,1.07,0,0,1-.85,1.61c-4.48.25-9.71-4-11.94-9.26S43.6,45,47.17,42.55a1.07,1.07,0,0,1,1.61.57c.28.92.58,1.86.85,2.69C50.4,47.89,51.12,50,52,52Z"/><path class="cls-4" d="M63.09,46.82c2.23,5.26,1.65,12-1.66,15a1.06,1.06,0,0,1-1.74-.49.5.5,0,0,0,0-.12,35.36,35.36,0,0,0-1.34-4.12c-.84-2.28-1.66-4.56-2.61-6.81-.87-2-1.86-4-2.82-6-.39-.75-.84-1.58-1.29-2.4a1.06,1.06,0,0,1,.71-1.55C56.55,39.5,60.86,41.56,63.09,46.82Z"/><path class="cls-4" d="M54,75.55c-2.25,1-4.42,2-6.62,3.08a35.74,35.74,0,0,0-3.82,2h0a1.06,1.06,0,0,1-1.61-.84c-.26-4.48,4-9.72,9.25-11.94S61,67.17,63.4,70.74a1,1,0,0,1-.56,1.6l-2.69.86C58.07,74,56,74.68,54,75.55Z"/><path class="cls-4" d="M59.14,86.66c-5.26,2.23-12,1.64-15-1.66a1.07,1.07,0,0,1,.5-1.74l.12,0a34.6,34.6,0,0,0,4.11-1.34c2.29-.85,4.57-1.66,6.82-2.61,2-.87,4-1.86,6-2.82l2.4-1.29a1.06,1.06,0,0,1,1.55.71C66.46,80.11,64.4,84.43,59.14,86.66Z"/><path class="cls-4" d="M60.15,106.91c.83.28,1.77.58,2.69.86a1.06,1.06,0,0,1,.56,1.61c-2.43,3.57-7,5.09-12.24,2.86s-9.51-7.46-9.25-11.94a1.06,1.06,0,0,1,1.61-.85h0a35.67,35.67,0,0,0,3.82,2c2.2,1.06,4.37,2.13,6.62,3.08C56,105.43,58.07,106.15,60.15,106.91Z"/><path class="cls-4" d="M65.6,104.23a1.07,1.07,0,0,1-1.55.72c-.82-.45-1.65-.9-2.4-1.29-2-1-3.95-2-6-2.82-2.25-1-4.53-1.77-6.82-2.61a34.6,34.6,0,0,0-4.11-1.34l-.12,0a1.06,1.06,0,0,1-.5-1.73c3-3.31,9.77-3.89,15-1.66S66.46,100,65.6,104.23Z"/><path class="cls-4" d="M83.06,101.45c-1-2.24-2-4.41-3.08-6.61A34,34,0,0,0,78,91h0a1.06,1.06,0,0,1,.85-1.6c4.47-.26,9.71,4,11.94,9.25s.71,9.8-2.86,12.24a1.06,1.06,0,0,1-1.61-.56c-.29-.92-.59-1.86-.86-2.69C84.64,105.57,83.93,103.5,83.06,101.45Z"/><path class="cls-4" d="M72,106.64c-2.23-5.26-1.64-12,1.67-15a1.05,1.05,0,0,1,1.73.49c0,.06,0,.11,0,.13a35.15,35.15,0,0,0,1.33,4.11c.85,2.29,1.66,4.57,2.62,6.82.86,2,1.86,4,2.82,6,.39.74.83,1.58,1.28,2.4a1.05,1.05,0,0,1-.71,1.54C78.5,114,74.19,111.9,72,106.64Z"/><path class="cls-4" d="M81.09,77.91c2.25-1,4.42-2,6.61-3.09a35.67,35.67,0,0,0,3.82-2h0a1.06,1.06,0,0,1,1.6.85c.26,4.48-4,9.71-9.25,11.94s-9.8.71-12.24-2.86a1.06,1.06,0,0,1,.57-1.61c.92-.28,1.86-.58,2.69-.86C77,79.49,79.05,78.77,81.09,77.91Z"/><path class="cls-4" d="M75.91,66.8c5.25-2.23,12-1.65,15,1.66a1.05,1.05,0,0,1-.49,1.73l-.13,0a35.83,35.83,0,0,0-4.11,1.34c-2.29.84-4.57,1.66-6.81,2.61-2,.87-4,1.86-6,2.82L71,78.29a1.06,1.06,0,0,1-1.54-.72C68.59,73.34,70.64,69,75.91,66.8Z"/><path class="cls-4" d="M74.9,46.54l-2.69-.86a1.06,1.06,0,0,1-.57-1.6c2.44-3.57,7-5.1,12.24-2.86s9.51,7.46,9.25,11.94a1.05,1.05,0,0,1-1.6.84h0a35.74,35.74,0,0,0-3.82-2c-2.19-1-4.36-2.13-6.61-3.08C79.05,48,77,47.31,74.9,46.54Z"/><path class="cls-4" d="M69.45,49.22A1.05,1.05,0,0,1,71,48.51l2.4,1.29c2,1,4,2,6,2.82,2.24,1,4.52,1.76,6.81,2.61a35.83,35.83,0,0,0,4.11,1.34l.13,0a1.06,1.06,0,0,1,.49,1.74c-3,3.31-9.77,3.89-15,1.66S68.59,53.45,69.45,49.22Z"/><path class="cls-4" d="M106.7,52c1,2.25,2,4.42,3.08,6.62a35.74,35.74,0,0,0,2,3.82h0a1.06,1.06,0,0,1-.84,1.61c-4.48.25-9.71-4-11.94-9.26s-.71-9.8,2.86-12.24a1.06,1.06,0,0,1,1.6.57c.29.92.59,1.86.86,2.69C105.12,47.89,105.84,50,106.7,52Z"/><path class="cls-4" d="M117.81,46.82c2.23,5.26,1.65,12-1.66,15a1.06,1.06,0,0,1-1.74-.49c0-.06,0-.1,0-.12A35.36,35.36,0,0,0,113,57.11c-.85-2.28-1.66-4.56-2.61-6.81-.87-2-1.86-4-2.82-6-.39-.75-.84-1.58-1.29-2.4a1.06,1.06,0,0,1,.71-1.55C111.26,39.5,115.58,41.56,117.81,46.82Z"/><path class="cls-4" d="M108.67,75.55c-2.24,1-4.41,2-6.61,3.08a35.74,35.74,0,0,0-3.82,2h0a1.05,1.05,0,0,1-1.6-.84c-.26-4.48,4-9.72,9.25-11.94s9.8-.71,12.24,2.86a1.05,1.05,0,0,1-.56,1.6l-2.69.86C112.79,74,110.72,74.68,108.67,75.55Z"/><path class="cls-4" d="M113.86,86.66c-5.26,2.23-12,1.64-15-1.66a1.06,1.06,0,0,1,.49-1.74l.13,0a35.2,35.2,0,0,0,4.11-1.34c2.29-.85,4.57-1.66,6.82-2.61,2-.87,4-1.86,6-2.82l2.4-1.29a1.05,1.05,0,0,1,1.54.71C121.18,80.11,119.12,84.43,113.86,86.66Z"/><path class="cls-4" d="M114.87,106.91c.83.28,1.77.58,2.69.86a1.06,1.06,0,0,1,.56,1.61c-2.44,3.57-7,5.09-12.24,2.86s-9.51-7.46-9.25-11.94a1.06,1.06,0,0,1,1.6-.85h0a35.67,35.67,0,0,0,3.82,2c2.2,1.06,4.37,2.13,6.61,3.08C110.72,105.43,112.79,106.15,114.87,106.91Z"/><path class="cls-4" d="M120.31,104.23a1.06,1.06,0,0,1-1.54.72l-2.4-1.29c-2-1-4-2-6-2.82-2.25-1-4.53-1.77-6.82-2.61a35.2,35.2,0,0,0-4.11-1.34l-.13,0a1.05,1.05,0,0,1-.49-1.73c3-3.31,9.77-3.89,15-1.66S121.18,100,120.31,104.23Z"/><rect class="cls-1" x="40.53" y="38.36" width="81.06" height="76.73"/><path class="cls-4" d="M2,63.09c-.95-2.25-2-4.42-3.08-6.62a34.91,34.91,0,0,0-2-3.82h0A1.07,1.07,0,0,1-2.26,51c4.47-.25,9.71,4,11.93,9.26s.71,9.8-2.86,12.24A1.06,1.06,0,0,1,5.21,72c-.29-.92-.59-1.86-.86-2.69C3.58,67.2,2.87,65.13,2,63.09Z"/><path class="cls-4" d="M-9.11,68.27c-2.23-5.26-1.64-12,1.66-15a1.06,1.06,0,0,1,1.74.49c0,.06,0,.1,0,.12A35.3,35.3,0,0,0-4.34,58c.85,2.28,1.66,4.56,2.62,6.81.86,2,1.85,4,2.81,6,.4.74.84,1.58,1.29,2.39a1.06,1.06,0,0,1-.71,1.55C-2.56,75.59-6.87,73.53-9.11,68.27Z"/><path class="cls-4" d="M0,39.54c2.25-.95,4.42-2,6.61-3.08a34,34,0,0,0,3.82-2h0a1.06,1.06,0,0,1,1.6.85c.26,4.47-4,9.71-9.25,11.93s-9.8.71-12.24-2.86a1.06,1.06,0,0,1,.56-1.6l2.7-.86C-4.09,41.12-2,40.41,0,39.54Z"/><path class="cls-4" d="M-5.16,28.43c5.26-2.23,12-1.64,15,1.66a1.06,1.06,0,0,1-.49,1.74l-.13,0A35.77,35.77,0,0,0,5.14,33.2c-2.29.85-4.57,1.66-6.81,2.62-2.05.86-4,1.85-6,2.81l-2.4,1.29a1.05,1.05,0,0,1-1.54-.71C-12.48,35-10.42,30.67-5.16,28.43Z"/><path class="cls-4" d="M-6.16,8.18C-7,7.9-7.93,7.6-8.86,7.32a1.07,1.07,0,0,1-.56-1.61C-7,2.14-2.44.62,2.82,2.85s9.51,7.46,9.25,11.94a1.06,1.06,0,0,1-1.6.85h0a34,34,0,0,0-3.82-2C4.45,12.55,2.28,11.48,0,10.53-2,9.66-4.09,9-6.16,8.18Z"/><path class="cls-4" d="M-11.61,10.86a1.06,1.06,0,0,1,1.54-.72l2.4,1.29c2,1,4,2,6,2.82C.57,15.2,2.85,16,5.14,16.86A34,34,0,0,0,9.25,18.2l.13,0A1.05,1.05,0,0,1,9.87,20c-3,3.31-9.77,3.89-15,1.66S-12.48,15.09-11.61,10.86Z"/><path class="cls-4" d="M25.64,13.64c.95,2.24,2,4.41,3.08,6.61a35.74,35.74,0,0,0,2,3.82h0a1.05,1.05,0,0,1-.84,1.6c-4.48.26-9.72-4-11.94-9.25s-.71-9.8,2.86-12.24a1.05,1.05,0,0,1,1.6.56c.29.93.59,1.87.86,2.69C24.06,9.52,24.77,11.59,25.64,13.64Z"/><path class="cls-4" d="M36.75,8.45c2.23,5.26,1.65,12-1.66,15A1.06,1.06,0,0,1,33.35,23a.45.45,0,0,1,0-.13A35.83,35.83,0,0,0,32,18.75c-.85-2.29-1.66-4.57-2.61-6.81-.87-2-1.86-4-2.82-6-.39-.74-.84-1.58-1.29-2.4A1.05,1.05,0,0,1,26,2C30.2,1.13,34.52,3.19,36.75,8.45Z"/><path class="cls-4" d="M27.61,37.19c-2.24,1-4.41,2-6.61,3.08a34,34,0,0,0-3.82,2h0a1.06,1.06,0,0,1-1.6-.85c-.26-4.48,4-9.71,9.25-11.94s9.8-.71,12.24,2.86A1.06,1.06,0,0,1,36.5,34c-.93.28-1.87.58-2.69.86C31.73,35.6,29.66,36.32,27.61,37.19Z"/><path class="cls-4" d="M32.8,48.29c-5.26,2.23-12,1.65-15-1.66a1.05,1.05,0,0,1,.49-1.73l.13,0a35.83,35.83,0,0,0,4.11-1.34c2.29-.84,4.57-1.66,6.81-2.61,2.05-.87,4-1.86,6-2.82l2.4-1.29a1.06,1.06,0,0,1,1.54.72C40.12,41.75,38.06,46.06,32.8,48.29Z"/><path class="cls-4" d="M33.81,68.55l2.69.86a1.05,1.05,0,0,1,.56,1.6c-2.44,3.57-7,5.1-12.24,2.86s-9.51-7.46-9.25-11.93a1.05,1.05,0,0,1,1.6-.85h0a35.74,35.74,0,0,0,3.82,2c2.2,1.05,4.37,2.13,6.61,3.08C29.66,67.07,31.73,67.78,33.81,68.55Z"/><path class="cls-4" d="M39.25,65.87a1.05,1.05,0,0,1-1.54.71l-2.4-1.29c-2-1-4-2-6-2.81-2.24-1-4.52-1.77-6.81-2.62a37.89,37.89,0,0,0-4.11-1.34l-.13,0a1.06,1.06,0,0,1-.49-1.74c3-3.3,9.77-3.89,15-1.66S40.12,61.64,39.25,65.87Z"/><rect class="cls-1" x="-40.53" width="81.06" height="76.73"/><path class="cls-4" d="M54-1.18c-2.25,1-4.42,2-6.62,3.08a35.74,35.74,0,0,0-3.82,2h0a1.06,1.06,0,0,1-1.61-.84c-.26-4.48,4-9.71,9.25-11.94S61-9.56,63.4-6a1,1,0,0,1-.56,1.6l-2.69.86C58.07-2.76,56-2,54-1.18Z"/><path class="cls-4" d="M59.14,9.93c-5.26,2.23-12,1.65-15-1.66a1.07,1.07,0,0,1,.5-1.74l.12,0a34.6,34.6,0,0,0,4.11-1.34c2.29-.85,4.57-1.66,6.82-2.61,2-.87,4-1.86,6-2.82.75-.39,1.58-.84,2.4-1.29a1.07,1.07,0,0,1,1.55.71C66.46,3.38,64.4,7.7,59.14,9.93Z"/><path class="cls-4" d="M60.15,30.19c.83.27,1.77.57,2.69.85a1.06,1.06,0,0,1,.56,1.61c-2.43,3.57-7,5.09-12.24,2.86s-9.51-7.46-9.25-11.94a1.06,1.06,0,0,1,1.61-.85h0a35.67,35.67,0,0,0,3.82,2c2.2,1.06,4.37,2.13,6.62,3.09C56,28.7,58.07,29.42,60.15,30.19Z"/><path class="cls-4" d="M65.6,27.51a1.07,1.07,0,0,1-1.55.71c-.82-.45-1.65-.9-2.4-1.29-2-1-3.95-1.95-6-2.82-2.25-.95-4.53-1.77-6.82-2.61a34.6,34.6,0,0,0-4.11-1.34l-.12,0a1.07,1.07,0,0,1-.5-1.74c3-3.31,9.77-3.89,15-1.66S66.46,23.27,65.6,27.51Z"/><path class="cls-4" d="M83.06,24.73c-1-2.25-2-4.42-3.08-6.62a34,34,0,0,0-2-3.82h0a1.06,1.06,0,0,1,.85-1.61c4.47-.26,9.71,4,11.94,9.25s.71,9.8-2.86,12.24a1.06,1.06,0,0,1-1.61-.56c-.29-.92-.59-1.86-.86-2.69C84.64,28.84,83.93,26.77,83.06,24.73Z"/><path class="cls-4" d="M72,29.91c-2.23-5.26-1.64-12,1.67-15a1.06,1.06,0,0,1,1.73.5s0,.1,0,.12a35.15,35.15,0,0,0,1.33,4.11c.85,2.29,1.66,4.57,2.62,6.82.86,2,1.86,4,2.82,6,.39.75.83,1.58,1.28,2.4a1.06,1.06,0,0,1-.71,1.55C78.5,37.23,74.19,35.17,72,29.91Z"/><path class="cls-4" d="M81.09,1.18c2.25-1,4.42-2,6.61-3.09a35.67,35.67,0,0,0,3.82-2h0a1,1,0,0,1,1.6.84c.26,4.48-4,9.71-9.25,11.94S74.08,9.56,71.64,6a1.05,1.05,0,0,1,.57-1.6l2.69-.86C77,2.76,79.05,2,81.09,1.18Z"/><path class="cls-4" d="M75.91-9.93c5.25-2.23,12-1.65,15,1.66a1.06,1.06,0,0,1-.49,1.74l-.13,0A35.83,35.83,0,0,0,86.2-5.16c-2.29.84-4.57,1.66-6.81,2.61-2,.87-4,1.86-6,2.82L71,1.56A1.06,1.06,0,0,1,69.45.85C68.59-3.39,70.64-7.7,75.91-9.93Z"/><path class="cls-4" d="M108.67-1.18c-2.24,1-4.41,2-6.61,3.08a35.74,35.74,0,0,0-3.82,2h0a1.05,1.05,0,0,1-1.6-.84c-.26-4.48,4-9.71,9.25-11.94s9.8-.71,12.24,2.86a1.05,1.05,0,0,1-.56,1.6l-2.69.86C112.79-2.76,110.72-2,108.67-1.18Z"/><path class="cls-4" d="M113.86,9.93c-5.26,2.23-12,1.65-15-1.66a1.06,1.06,0,0,1,.49-1.74l.13,0a35.2,35.2,0,0,0,4.11-1.34c2.29-.85,4.57-1.66,6.82-2.61,2-.87,4-1.86,6-2.82l2.4-1.29a1.06,1.06,0,0,1,1.54.71C121.18,3.38,119.12,7.7,113.86,9.93Z"/><path class="cls-4" d="M114.87,30.19c.83.27,1.77.57,2.69.85a1.06,1.06,0,0,1,.56,1.61c-2.44,3.57-7,5.09-12.24,2.86s-9.51-7.46-9.25-11.94a1.06,1.06,0,0,1,1.6-.85h0a35.67,35.67,0,0,0,3.82,2c2.2,1.06,4.37,2.13,6.61,3.09C110.72,28.7,112.79,29.42,114.87,30.19Z"/><path class="cls-4" d="M120.31,27.51a1.06,1.06,0,0,1-1.54.71l-2.4-1.29c-2-1-4-1.95-6-2.82-2.25-.95-4.53-1.77-6.82-2.61a35.2,35.2,0,0,0-4.11-1.34l-.13,0a1.06,1.06,0,0,1-.49-1.74c3-3.31,9.77-3.89,15-1.66S121.18,23.27,120.31,27.51Z"/><rect class="cls-1" x="40.53" y="-38.36" width="81.06" height="76.73"/></pattern></defs><g id="レイヤー_2" data-name="レイヤー 2"><g id="レイヤー_1-2" data-name="レイヤー 1"><rect class="cls-6" width="595.28" height="443.43"/><polygon class="cls-7" points="288.33 30.26 252.34 92.61 324.33 92.61 288.33 30.26"/><polygon class="cls-8" points="88.42 376.53 488.25 376.53 455 318.93 121.67 318.93 88.42 376.53"/><polygon class="cls-9" points="337 114.55 239.67 114.55 199.67 183.84 377 183.84 337 114.55"/><polygon class="cls-8" points="199.67 183.84 121.67 318.93 455 318.93 377 183.84 199.67 183.84"/><polygon class="cls-10" points="324.33 92.61 252.34 92.61 239.67 114.55 337 114.55 324.33 92.61"/><text class="cls-11" transform="translate(212.61 111.55) scale(2)">5</text><text class="cls-11" transform="translate(225.95 110.26)">%</text><text class="cls-11" transform="translate(171.36 180.84) scale(2)">5</text><text class="cls-11" transform="translate(184.7 179.56)">%</text><text class="cls-11" transform="translate(80.16 315.93) scale(2)">50</text><text class="cls-11" transform="translate(106.84 314.65)">%</text><text class="cls-11" transform="translate(49.05 373.53) scale(2)">40</text><text class="cls-11" transform="translate(75.74 372.25)">%</text><line class="cls-12" x1="324.33" y1="92.61" x2="252.34" y2="92.61"/><line class="cls-13" x1="324.33" y1="92.61" x2="318.33" y2="92.61"/><line class="cls-14" x1="306.33" y1="92.61" x2="264.34" y2="92.61"/><line class="cls-13" x1="258.34" y1="92.61" x2="252.34" y2="92.61"/><line class="cls-7" x1="288.33" y1="30.26" x2="252.34" y2="92.61"/><line class="cls-7" x1="324.33" y1="92.61" x2="288.33" y2="30.26"/><line class="cls-7" x1="252.34" y1="92.61" x2="239.67" y2="114.55"/><line class="cls-15" x1="336.99" y1="114.55" x2="324.33" y2="92.61"/><text class="cls-16" transform="translate(363.58 108.86)">Specialty</text><text class="cls-16" transform="translate(343.08 55.44)">High Quality<tspan x="0" y="24">Specialty</tspan></text><rect class="cls-6" x="238.01" y="117.66" width="100.66" height="63.06"/><text class="cls-16" transform="translate(238.94 138.69)">Primium<tspan class="cls-17"><tspan x="5.22" y="12.23">ブルーマウンテン</tspan><tspan class="cls-18" x="85.22" y="12.23">、</tspan><tspan x="10.22" y="25.23">キリマンジャロ</tspan><tspan class="cls-18" x="80.22" y="25.23">、</tspan><tspan x="12.72" y="38.23">ハワイコナなど</tspan></tspan></text><text class="cls-16" transform="translate(218.84 245.9)">Commercial<tspan class="cls-17"><tspan x="20.74" y="18.23">コロンビアスプレモ</tspan><tspan class="cls-19" x="110.74" y="18.23">・</tspan><tspan x="18.57" y="31.23">サント</tspan><tspan class="cls-20" x="48.57" y="31.23">ス</tspan><tspan x="61.07" y="31.23">No.</tspan><tspan class="cls-20" x="79.77" y="31.23">2</tspan><tspan x="90.42" y="31.23">などの</tspan><tspan x="44.49" y="44.23">一般流通品</tspan></tspan></text><text class="cls-16" transform="translate(225.9 348.24)">Low Grade<tspan class="cls-17"><tspan x="2.44" y="16.23">その他のディスカウント品</tspan></tspan></text><line class="cls-15" x1="336.99" y1="114.55" x2="324.33" y2="92.61"/><line class="cls-15" x1="324.82" y1="101.12" x2="355.84" y2="101.12"/><line class="cls-15" x1="299.65" y1="57.9" x2="336.99" y2="57.9"/></g></g></svg>