<svg xmlns="http://www.w3.org/2000/svg" viewBox="0 0 242.47 22.24"><defs><style>.cls-1{fill:#fff;}</style></defs><g id="レイヤー_2" data-name="レイヤー 2"><g id="レイヤー_2-2" data-name="レイヤー 2"><path class="cls-1" d="M50.76,20.07a5,5,0,0,1-1.27-2,11.42,11.42,0,0,1-.58-2.56A21,21,0,0,1,48.75,13q0-.3,0-1.08V10.14c0-.69,0-1.52.07-2.48a17.34,17.34,0,0,1,.39-2.49,6.18,6.18,0,0,1,.91-2.11,3.27,3.27,0,0,1,1.61-1.3,4.25,4.25,0,0,1,1.13-.17c.67,0,1,.23,1,.67a.52.52,0,0,1-.18.42.65.65,0,0,1-.46.16,1.25,1.25,0,0,1-.34-.07l-.34,0A1.27,1.27,0,0,0,51.7,3a2,2,0,0,0-.6.8,8.58,8.58,0,0,0-.75,2.52,23.82,23.82,0,0,0-.29,2.93c0,.72,0,1.48,0,2.28v.65q0,.33,0,.84a23.81,23.81,0,0,0,.12,2.4,7.58,7.58,0,0,0,.53,2.4,2.64,2.64,0,0,0,1.25,1.58,2,2,0,0,0,1,.24,2.13,2.13,0,0,0,1.77-1A14.71,14.71,0,0,0,54.55,17a2.8,2.8,0,0,0-.28-1.09h-.11l-.25,0-.58,0c-.54,0-.82-.23-.82-.69a.48.48,0,0,1,.24-.39,1.7,1.7,0,0,1,.65-.24,5.09,5.09,0,0,1,1.2-.16.88.88,0,0,1,.75.35,1.56,1.56,0,0,1,.26.92,13.33,13.33,0,0,0,.24,2.16,12.81,12.81,0,0,1,.24,2.13.69.69,0,0,1-.17.46.52.52,0,0,1-.41.19.8.8,0,0,1-.81-.5v0l-.53.27a2.61,2.61,0,0,1-1.23.4A3.09,3.09,0,0,1,50.76,20.07Z"/><path class="cls-1" d="M65.93,20.3a3,3,0,0,1-.87-1.07A9.52,9.52,0,0,1,64.2,16,24.65,24.65,0,0,1,64,12.9a3.14,3.14,0,0,1,0-.48V12c0-.08,0-.13,0-.13v-.43l0-1.68c0-.51.08-1.32.19-2.45a8.28,8.28,0,0,1,.55-2.23,1.78,1.78,0,0,1,.44-.73.82.82,0,0,1,.6-.25,4.16,4.16,0,0,1,1.72.35,3.58,3.58,0,0,1,1.3,1,5.6,5.6,0,0,1,.82,1.48,8.5,8.5,0,0,1,.47,1.85,14.67,14.67,0,0,1,.15,2.14v.19c0,.5,0,.95,0,1.35l0,1.36q0,6.92-3.22,6.92A1.85,1.85,0,0,1,65.93,20.3Zm1.85-1a2.25,2.25,0,0,0,.55-.95,9.24,9.24,0,0,0,.55-2.64c.08-.81.12-1.52.12-2.11s-.06-1.66-.17-2.83-.14-2.15-.14-2.76V7.62A2.65,2.65,0,0,0,68.08,6a1.77,1.77,0,0,0-1.38-.67,1.08,1.08,0,0,0-1.08.94,6.33,6.33,0,0,0-.24,1.92c0,.3,0,.56,0,.77v.64l-.05,1.11c0,.33,0,.7,0,1.1,0,.86,0,1.72.07,2.57a20.07,20.07,0,0,0,.48,3.5c.25,1.19.63,1.78,1.12,1.78A1.14,1.14,0,0,0,67.78,19.34Z"/><path class="cls-1" d="M80.81,20.3a3,3,0,0,1-.87-1.07A9.52,9.52,0,0,1,79.08,16a24.65,24.65,0,0,1-.22-3.14,3.14,3.14,0,0,1,0-.48V12c0-.08,0-.13,0-.13v-.43l0-1.68c0-.51.08-1.32.19-2.45a8.28,8.28,0,0,1,.55-2.23,1.88,1.88,0,0,1,.43-.73.85.85,0,0,1,.6-.25,4.18,4.18,0,0,1,1.73.35,3.58,3.58,0,0,1,1.3,1,5.32,5.32,0,0,1,.81,1.48A8,8,0,0,1,85,8.74a14.67,14.67,0,0,1,.15,2.14v.19c0,.5,0,.95,0,1.35l0,1.36c0,4.61-1.08,6.92-3.22,6.92A1.83,1.83,0,0,1,80.81,20.3Zm1.85-1a2.25,2.25,0,0,0,.55-.95,9.24,9.24,0,0,0,.55-2.64c.08-.81.12-1.52.12-2.11s-.06-1.66-.17-2.83-.14-2.15-.14-2.76V7.62A2.65,2.65,0,0,0,83,6a1.77,1.77,0,0,0-1.38-.67,1.08,1.08,0,0,0-1.08.94,6.33,6.33,0,0,0-.24,1.92c0,.3,0,.56,0,.77v.64l0,1.11c0,.33,0,.7,0,1.1,0,.86,0,1.72.08,2.57a20.07,20.07,0,0,0,.48,3.5c.25,1.19.63,1.78,1.12,1.78A1.14,1.14,0,0,0,82.66,19.34Z"/><path class="cls-1" d="M94.18,17.24l0-3.79c0-1.12,0-2.38,0-3.77,0-.51,0-1.3-.15-2.38S94,5.43,94,5.17a.71.71,0,0,1,.27-.55.83.83,0,0,1,.57-.24,3.69,3.69,0,0,1,1.62.37,4.49,4.49,0,0,1,1.38,1A7.41,7.41,0,0,1,99.5,9a7.05,7.05,0,0,1,.22,1.75c0,.21,0,.4,0,.58l0,.65V13.3q0,1.54-.09,2.43A7.38,7.38,0,0,1,99,17.86a5.33,5.33,0,0,1-1.39,1.8,6.55,6.55,0,0,1-1.1.73H94.8C94.38,20.39,94.18,19.34,94.18,17.24Zm2.56,1.67a2.19,2.19,0,0,0,.7-.69,4.22,4.22,0,0,0,.44-1,6.42,6.42,0,0,0,.3-1.14,13.36,13.36,0,0,0,.27-2.2c0-.2,0-.48,0-.84,0-4.84-.93-7.36-2.81-7.56A16.61,16.61,0,0,0,95.5,8c0,1,.06,2.77.19,5.28.11,2.23.17,4,.17,5.31v.57A1.61,1.61,0,0,0,96.74,18.91Z"/><path class="cls-1" d="M119.58,20.07a.67.67,0,0,1-.35-.6c.35-.35.53-1.28.53-2.81,0-.91-.07-2.23-.22-4s-.24-3-.24-3.94l0-1.31c0-.39,0-.83,0-1.33a7.87,7.87,0,0,0-.24-1.7,6.51,6.51,0,0,1-.29-1.51c0-.56.61-.84,1.85-.84h.36a3.42,3.42,0,0,1,2.25.79,5.23,5.23,0,0,1,1.3,1.94,11.38,11.38,0,0,1,.62,2.4,20.28,20.28,0,0,1,.15,2.12v1.89a.37.37,0,0,0,0,.2,1.8,1.8,0,0,0,0,.28.88.88,0,0,1,0,.24,9.11,9.11,0,0,1-.23,1.84,13.4,13.4,0,0,1-.66,2.17,9.3,9.3,0,0,1-2.43,3.74,2.61,2.61,0,0,1-1.65.63A1.49,1.49,0,0,1,119.58,20.07Zm2.89-2.77a8.62,8.62,0,0,0,1-2.31,17.57,17.57,0,0,0,.65-4.76,18.52,18.52,0,0,0-.24-2.83,6.37,6.37,0,0,0-1.13-2.69,2.89,2.89,0,0,0-1-.9,3.08,3.08,0,0,0-1.41-.32v0q0,2.16.28,6.53c.2,2.9.29,5.09.29,6.58V18.9A5.09,5.09,0,0,0,122.47,17.3Z"/><path class="cls-1" d="M138.46,20.29a.68.68,0,0,1-.27-.63,20.48,20.48,0,0,0-.24-2.44l-.09-.51-2.38-.36c-.1.37-.23,1.12-.41,2.24a3.31,3.31,0,0,1-.45,1.55.58.58,0,0,1-.48.22.85.85,0,0,1-.53-.18.54.54,0,0,1-.24-.44l0-.12,0-.1a105,105,0,0,0,2.4-12.17c0-.06,0-.17,0-.32s0-.37,0-.66c.05-.59.1-1.07.16-1.42a1.91,1.91,0,0,1,.27-.79h.82a1,1,0,0,1,.58.16.49.49,0,0,1,.24.44,41.77,41.77,0,0,0,.5,5.42,47.38,47.38,0,0,1,.48,5.19,5.48,5.48,0,0,0,.12.74,4.54,4.54,0,0,1,.12.72q0,.18.24,1.44a12,12,0,0,1,.22,1.49v0a.64.64,0,0,1-.39.68A1.53,1.53,0,0,1,138.46,20.29ZM137.62,15a49.71,49.71,0,0,0-.39-5.52L137,7q-1,5.64-1.41,8.52a6.21,6.21,0,0,0,2.11.38A4.52,4.52,0,0,1,137.62,15Z"/><path class="cls-1" d="M149.26,20.05a16.11,16.11,0,0,0,.26-4.08,15.28,15.28,0,0,0-.12-1.83l-.07-.69a9,9,0,0,1-.07-1v-.63c-.16-.4-.46-1.14-.88-2.23s-.76-2-1-2.74a6.56,6.56,0,0,1-.46-1.73V5l.56-.41c.27,0,.56.38.86,1a20.19,20.19,0,0,1,.85,2.55c.31,1.1.47,1.69.47,1.75.06-.18.19-.78.38-1.8a27.21,27.21,0,0,1,.65-2.71c.27-.79.55-1.18.84-1.18a.64.64,0,0,1,.42.15.42.42,0,0,1,.18.35,12.9,12.9,0,0,1-.67,3.46,14.26,14.26,0,0,0-.72,3.5V19c0,1.07-.26,1.61-.79,1.61A.78.78,0,0,1,149.26,20.05Z"/><path class="cls-1" d="M173.68,20.31a3.14,3.14,0,0,1-1-.84,5.26,5.26,0,0,1-.64-1.28,8.8,8.8,0,0,1-.44-1.62,24.19,24.19,0,0,1-.38-3.72c0-.37,0-1,0-1.9V9.44c0-.43,0-.88,0-1.34a11.84,11.84,0,0,1,.17-2.24,3.57,3.57,0,0,1-.07-.74,2.88,2.88,0,0,1,1.08-2.33,4.16,4.16,0,0,1,2.73-.88,2.11,2.11,0,0,1,1.15.33,1,1,0,0,1,.53.84.47.47,0,0,1-.19.39.83.83,0,0,1-.48.14,2,2,0,0,1-.52-.07c-.18,0-.3-.12-.34-.22H175v0a2.65,2.65,0,0,0-1.48.39,2,2,0,0,0-.68,1,3.11,3.11,0,0,0-.14.67,6.89,6.89,0,0,0-.05.74c0,.13,0,.39,0,.77l0,.84,0,.82a4,4,0,0,1-.1.84,5.06,5.06,0,0,0-.12.84v.57c0,.63,0,1.48.08,2.57a14.2,14.2,0,0,0,.31,2.74,5.35,5.35,0,0,0,.81,2.16,1.77,1.77,0,0,0,1.56.91,1.83,1.83,0,0,0,1-.43,2.11,2.11,0,0,1,.91-.43,1,1,0,0,1,.7.36,1.58,1.58,0,0,1-.67,1.37,3.5,3.5,0,0,1-1.49.55c-.32,0-.58,0-.77,0A2.44,2.44,0,0,1,173.68,20.31Z"/><path class="cls-1" d="M187.61,20.3a3,3,0,0,1-.87-1.07,9.52,9.52,0,0,1-.86-3.19,24.65,24.65,0,0,1-.22-3.14,3.14,3.14,0,0,1,0-.48V12c0-.08,0-.13,0-.13v-.43l0-1.68c0-.51.08-1.32.19-2.45a8.28,8.28,0,0,1,.55-2.23,1.88,1.88,0,0,1,.43-.73.85.85,0,0,1,.6-.25,4.18,4.18,0,0,1,1.73.35,3.58,3.58,0,0,1,1.3,1,5.32,5.32,0,0,1,.81,1.48,8,8,0,0,1,.48,1.85,14.67,14.67,0,0,1,.15,2.14v.19c0,.5,0,.95,0,1.35l0,1.36c0,4.61-1.08,6.92-3.22,6.92A1.83,1.83,0,0,1,187.61,20.3Zm1.85-1a2.25,2.25,0,0,0,.55-.95,9.24,9.24,0,0,0,.55-2.64c.08-.81.12-1.52.12-2.11s-.06-1.66-.17-2.83-.14-2.15-.14-2.76V7.62A2.71,2.71,0,0,0,189.76,6a1.77,1.77,0,0,0-1.38-.67,1.08,1.08,0,0,0-1.08.94,6.33,6.33,0,0,0-.24,1.92c0,.3,0,.56,0,.77v.64L187,10.74c0,.33-.05.7-.05,1.1,0,.86,0,1.72.08,2.57a20.07,20.07,0,0,0,.48,3.5c.25,1.19.63,1.78,1.12,1.78A1.14,1.14,0,0,0,189.46,19.34Z"/><path class="cls-1" d="M200.47,20.1q.19-2,.31-6.12c.08-2.87.14-4.59.17-5.16V8.24c.07-1.57.1-2.65.1-3.26a.61.61,0,0,1,.27-.53,1.1,1.1,0,0,1,.64-.19,11.62,11.62,0,0,1,1.8.14,3,3,0,0,1,1,.31.63.63,0,0,1,.38.53c0,.45-.41.67-1.23.67a2.68,2.68,0,0,0-1.24-.24h-.29V6c0,.63,0,1.42-.1,2.38s-.12,1.7-.12,2.42v.65h.43c.79,0,1.18.21,1.18.62a.61.61,0,0,1-.25.51,1,1,0,0,1-.61.19,3,3,0,0,1-.94-.12V19.4c0,.71-.21,1.06-.63,1.06A1.62,1.62,0,0,1,200.47,20.1Z"/><path class="cls-1" d="M212.71,20.1q.19-2,.31-6.12c.08-2.87.14-4.59.17-5.16V8.24c.06-1.57.1-2.65.1-3.26a.61.61,0,0,1,.27-.53,1.1,1.1,0,0,1,.64-.19,11.62,11.62,0,0,1,1.8.14,3,3,0,0,1,1,.31.63.63,0,0,1,.38.53c0,.45-.41.67-1.23.67a2.7,2.7,0,0,0-1.25-.24h-.28V6c0,.63,0,1.42-.1,2.38s-.12,1.7-.12,2.42v.65h.43c.79,0,1.18.21,1.18.62a.63.63,0,0,1-.25.51,1,1,0,0,1-.62.19,3,3,0,0,1-.93-.12V19.4c0,.71-.21,1.06-.63,1.06A1.59,1.59,0,0,1,212.71,20.1Z"/><path class="cls-1" d="M225.78,20.34a.78.78,0,0,1-.28-.53V18.7c0-.14,0-.31,0-.5s0-.85-.07-1.54l0-1.53c0-.78,0-2,.07-3.51.06-1.39.1-2.55.1-3.5,0-.22,0-.56-.08-1s-.07-.8-.07-1c0-1.13.34-1.7,1-1.7a6.86,6.86,0,0,1,1.84.31c.69.21,1,.46,1,.75a.62.62,0,0,1-.2.44,1.3,1.3,0,0,1-.5.32,11.52,11.52,0,0,0-1.82-.48c0,.25,0,.59,0,1,0,.64,0,1.21,0,1.73-.05.76-.07,1.34-.07,1.72l.07.39.38,0,.48,0c.77,0,1.16.22,1.16.67a.54.54,0,0,1-.22.44.83.83,0,0,1-.55.18,3.91,3.91,0,0,1-.67,0h-.6c0,.41,0,1,0,1.82s0,1.52,0,2.16c-.05,1-.07,1.71-.07,2.19a6.19,6.19,0,0,0,0,1.34l.79,0,1,0c.61,0,.91.19.91.58a.56.56,0,0,1-.3.51,1.39,1.39,0,0,1-.73.18h-2A.85.85,0,0,1,225.78,20.34Z"/><path class="cls-1" d="M238.83,20.34a.76.76,0,0,1-.27-.53V18.7a3.63,3.63,0,0,1,0-.5c0-.34,0-.85-.07-1.54l-.05-1.53c0-.78,0-2,.08-3.51.06-1.39.09-2.55.09-3.5a9.76,9.76,0,0,0-.07-1,10.12,10.12,0,0,1-.07-1c0-1.13.33-1.7,1-1.7a6.79,6.79,0,0,1,1.83.31q1,.32,1.05.75a.59.59,0,0,1-.21.44,1.27,1.27,0,0,1-.49.32,11.52,11.52,0,0,0-1.82-.48c0,.25,0,.59,0,1,0,.64,0,1.21,0,1.73-.05.76-.08,1.34-.08,1.72l.08.39.38,0,.48,0c.77,0,1.15.22,1.15.67a.54.54,0,0,1-.21.44.86.86,0,0,1-.56.18,4,4,0,0,1-.67,0h-.6c0,.41.05,1,.05,1.82s0,1.52,0,2.16c-.05,1-.08,1.71-.08,2.19a7.17,7.17,0,0,0,.05,1.34l.79,0,1,0c.61,0,.91.19.91.58a.56.56,0,0,1-.3.51,1.39,1.39,0,0,1-.73.18h-2A.87.87,0,0,1,238.83,20.34Z"/><path class="cls-1" d="M30.83,3.34a5.2,5.2,0,0,0-4.67-.1l.29-1.47A1.42,1.42,0,0,0,25.08,0H1.42A1.43,1.43,0,0,0,0,1.77L4,21.17a1.42,1.42,0,0,0,1.38,1.07h15.8a1.42,1.42,0,0,0,1.38-1.07l.91-4.49.64,0a6.66,6.66,0,0,0,3.83-1.12c3-2,3.76-6.15,4.19-8.38l0-.21A3.38,3.38,0,0,0,30.83,3.34Zm-1,3.21,0,.21c-.39,2-1,5.42-3.19,6.87a4.44,4.44,0,0,1-2.67.71l1.66-8.2c1.8-1.07,3.32-1.24,3.95-.82C29.83,5.52,29.93,5.94,29.81,6.55Z"/></g></g></svg>